<?xml version="1.0" encoding="UTF-8"?>
<svg id="_11" data-name="11" xmlns="http://www.w3.org/2000/svg" version="1.1" viewBox="0 0 1920 1080">
  <path id="Inner_Mouth" data-name="Inner Mouth" d="M278.8,525.25c113.82-21.51,306.16-177.85,674.21-177.85s617.11,166.69,686.76,176.39c-38.35,36.01-261.43,432.93-685.11,426.92-423.69-6.01-653.27-405.78-675.86-425.46Z" fill="#801817" stroke-width="0"/>
  <path id="Tongue" d="M453.09,662.19c71.18-51.16,160.72-107.44,378.89-106.78,41.87.13,87.43,8.36,132.04,8.36s80.39-8.36,131.79-8.37c260.51-.03,303.03,84.4,366.27,128.23-52.12,36.8-308.11,252.66-490.7,250.72-182.6-1.94-463.15-202.72-518.3-272.17Z" fill="#f2898b" stroke-width="0"/>
  <path id="Lower_Teeth" data-name="Lower Teeth" d="M515.25,772.34c25.7,5.11,49.19,10.04,69.11,17.7-6.3,15.57-11.37,27.47-13.62,36.09,11.37-14.32,14.1-21.44,26.72-31.66,3.21.12,65.01,11.73,65.01,11.73l-4.24,48.52,13.83-46.34,78.92,5.08,3.69,55.2,6.64-54.47,83.34,1.45,3.69,63.91,8.11-62.46,103.08,2.91,3.85,73.36,7.32-74.81,101.09.72,5.16,58.83,3.69-60.28,87.02-2.9,8.11,53.02v-55.2l71.54-7.99,13.28,53.74,3.69-55.2,81.87-2.18,5.9,33.05,4.43-33.77,58.27-3.63s-25.78,9.91-20.08,29.51c-201.11,94.15-287.53,144.79-430.89,144.79-143.35,0-279.93-67.66-458.31-167.26,10.64-17.52,9.77-31.46,9.77-31.46Z" fill="#fff" stroke-width="0"/>
  <path id="Upper_teeth" data-name="Upper teeth" d="M471.39,478.38l88.15-22.36,17.7-38.74-1.36,41.72,105.93-32,13.77-32.92,4.92,32.93,120.95-5.23,7.86-49.39,3.93,49.39,132.75,4.84,9.5-55.2,8.67,55.2h124.42l10.14-39.68,6.1,35.57,118.78,10.13,9.68-20.17,8.17,22.47,97.02,25.37,8.49-22.14,16.93,30.58,85.79,21.11-10.03-41.94s-378.56-102.72-496.56-102.42c-107.26-3.74-468.26,85.62-491.7,92.2v40.67Z" fill="#fff" stroke-width="0"/>
  <path id="Upper_Lips" data-name="Upper Lips" d="M1639.77,523.78c-188.09-85.28-368.51-226-583.32-246.51-64,1.36-89.15,28.72-97.17,30.61-5.21-3.96-35.09-29.89-96.87-29.55-213.45,18.72-348.43,148.09-589.79,245.45,39.04,11.24,247.91-45.7,340.09-53.11,188.43-11.74,317.08-13.47,346.57-13.62s247.08-2.91,347.89,12.6c256.68,39.49,271.66,55.26,332.6,54.13Z" fill="#e18788" stroke-width="0"/>
  <path id="Lower_Lips" data-name="Lower Lips" d="M1639.77,523.78c-98.72,179.74-288.94,444.46-547.57,501.14-58.38,12.09-91.11,17.36-132.91,17.36-28.66,0-48.5-3.76-120.87-18.89-251.23-71.23-401.11-246.07-565.79-499.61,41.11,6.33,125.36,95.19,341.62,228.46,103.66,62.85,206.15,111.32,346.57,111.32,157.53,0,243.72-45.45,348.66-92.94,186.64-119.49,292.85-240.51,330.3-246.85Z" fill="#d38281" stroke-width="0"/>
</svg>