<?xml version="1.0" encoding="UTF-8"?>
<svg id="_21" data-name="21" xmlns="http://www.w3.org/2000/svg" version="1.1" viewBox="0 0 1920 1080">
  <path id="Inner_Mouth" data-name="Inner Mouth" d="M254.45,543.21c92.94-16.34,339.05-88.85,707.11-88.85s638.43,75.06,710.43,89.16c-43.4,14.73-285.1,183.88-708.78,181.18-423.69-2.69-686.16-172.68-708.75-181.5Z" fill="#801817" stroke-width="0"/>
  <path id="Tongue" d="M471.71,620.3c71.18-51.16,151.79-58.27,369.96-57.62,41.87.13,77.79,4.43,122.4,4.43s76.83-7.2,131.38-5.79c260.43,6.73,303.4,15.15,366.64,58.98-52.12,36.8-315.43,153.6-498.02,151.66-182.6-1.94-469.13-125.02-492.36-151.66Z" fill="#f2898b" stroke-width="0"/>
  <path id="Lower_Teeth" data-name="Lower Teeth" d="M519.21,558.26c25.7,5.11,49.19,10.04,69.11,17.7-6.3,15.57-11.37,27.47-13.62,36.09,11.37-14.32,14.1-21.44,26.72-31.66,3.21.12,65.01,11.73,65.01,11.73l-4.24,48.52,13.83-46.34,78.92,5.08,3.69,55.2,6.64-54.47,83.34,1.45,3.69,63.91,8.11-62.46,103.08,2.91,3.85,73.36,7.32-74.81,101.09.72,5.16,58.83,3.69-60.28,87.02-2.9,8.11,53.02v-55.2l71.54-7.99,13.28,53.74,3.69-55.2,81.87-2.18,5.9,33.05,4.43-33.77,58.27-3.63s5.91,15,11.6,34.6c-201.11,94.15-319.22,139.7-462.57,139.7-143.35,0-290.24-61.11-468.62-160.71,10.64-17.52,20.09-38.01,20.09-38.01Z" fill="#fff" stroke-width="0"/>
  <path id="Upper_teeth" data-name="Upper teeth" d="M473.51,523.54l88.15-10.79,17.7-38.74-1.18,37.53,105.76-27.81,13.77-32.92,4.92,32.93,120.95-5.23,7.86-49.39,3.93,49.39,132.75,4.84,9.5-55.2,8.67,55.2h124.42l10.82-55.2,5.42,51.09,118.81-6.13,9.14-25.91,10.81,26.48,94.06,29.32.83-23.43,25.61,24.31,85.6,18.7-10.03-41.94s-378.56-118.26-496.56-117.96c-107.26-3.74-461.59,111.06-491.7,120.18v40.67Z" fill="#fff" stroke-width="0"/>
  <path id="Upper_Lips" data-name="Upper Lips" d="M1674.02,543.21c-31.58-11.55-490.21-221.62-606.64-217.53-64.34,0-88.7,26.3-102.66,32.17-11.06-5.87-49.21-32.17-93.42-32.17-61.28-10.98-412.87,130.69-616.85,217.53,41.4-3.92,272.34-.67,367.91,0,189.38,2.72,284.77,21.45,346.98,21.45,75.32,0,241.4-20.79,344.68-19.91,255.6,2.16,337.32-1.53,360-1.53Z" fill="#e18788" stroke-width="0"/>
  <path id="Lower_Lips" data-name="Lower Lips" d="M1671.98,543.52c-178.39,115.81-445.79,210.62-561.19,228.46-51.4,7.99-89.89-.13-131.7-.13-28.66,0-75.28,4.04-116.47.13-167.49-10.48-460.18-116.91-608.17-228.77,48.93-1.18,108.34-4.49,376-5.28,123.57,0,233.51,22.81,350.64,22.64,165.02-.24,217.79-27.06,344.17-27.06,216.25,0,246.3,10.01,346.72,10.01Z" fill="#d38281" stroke-width="0"/>
</svg>