<?xml version="1.0" encoding="UTF-8"?>
<svg id="_4" data-name="4" xmlns="http://www.w3.org/2000/svg" version="1.1" viewBox="0 0 1920 1080">
  <path id="Inner_Mouth" data-name="Inner Mouth" d="M294,523.3c107.23-22.98,303.83-145.25,671.88-145.25s573.86,135.7,674.71,141.77c-49.1,47.51-366.78,366.54-687.1,366.54-276.11,0-523.15-269.11-659.49-363.06Z" fill="#801817" stroke-width="0"/>
  <path id="Tongue" d="M474.6,662.21c71.18-51.16,150.71-87.56,368.88-86.9,41.87.13,77.79,4.43,122.4,4.43s76.83-7.2,131.38-5.79c260.43,6.73,318.24,55.06,381.49,98.89-52.12,36.8-306.39,208.15-488.98,206.21-182.6-1.94-491.95-190.2-515.18-216.84Z" fill="#f2898b" stroke-width="0"/>
  <path id="Lower_Teeth" data-name="Lower Teeth" d="M521.94,611.18c25.7,5.11,49.19,10.04,69.11,17.7-6.3,15.57-11.37,27.47-13.62,36.09,11.37-14.32,14.1-21.44,26.72-31.66,3.21.12,65.01,11.73,65.01,11.73l-4.24,48.52,13.83-46.34,78.92,5.08,3.69,55.2,6.64-54.47,83.34,1.45,3.69,63.91,8.11-62.46,103.08,2.91,3.85,73.36,7.32-74.81,101.09.72,5.16,58.83,3.69-60.28,87.02-2.9,8.11,53.02v-55.2l71.54-7.99,13.28,53.74,3.69-55.2,81.87-2.18,5.9,33.05,4.43-33.77,58.27-3.63s1.41-.31,7.11,19.3c-201.11,94.15-314.72,155-458.07,155-143.35,0-279.93-67.66-458.31-167.26,10.64-17.52,9.77-31.46,9.77-31.46Z" fill="#fff" stroke-width="0"/>
  <path id="Upper_teeth" data-name="Upper teeth" d="M474.18,499.76l88.15-22.36,17.7-38.74-1.36,41.72,105.93-32,13.77-32.92,4.92,32.93,120.95-5.23,7.86-49.39,3.93,49.39,132.75,4.84,9.5-55.2,8.67,55.2h124.42l10.14-39.68,6.1,35.57,118.78,10.13,9.68-20.17,8.17,22.47,97.02,25.37,8.49-22.14,16.93,30.58,85.79,21.11-10.03-41.94s-378.56-102.72-496.56-102.42c-107.26-3.74-468.26,85.62-491.7,92.2v40.67Z" fill="#fff" stroke-width="0"/>
  <path id="Upper_Lips" data-name="Upper Lips" d="M1642.33,519.48c-144.99-26.82-414.1-196.42-557.08-196.42-50.55-4.01-105.23,28.33-117.62,34.85-11.06-5.87-63.94-31.73-108.11-32.76-137.33-2.43-425.33,145.56-576.72,196.67,145.77,3.01,380.67-23.54,440.41-27.63,50.55-1.27,184.4-1.18,250.11-1.18,29.5,0,139.39-1.17,208.95,1.18,113.36,3.83,311.74,29.58,460.06,25.29Z" fill="#e18788" stroke-width="0"/>
  <path id="Lower_Lips" data-name="Lower Lips" d="M1640.59,519.82c-183.83,196.43-296.68,330.72-543.61,389.45-58.38,12.09-90.43,14.55-132.23,14.55-28.66,0-79.9-7.74-115.77-17.62-252.26-60.77-329.24-180.26-566.18-384.38,39.68-9.12,55.32-5.66,335.37,145.4,111.1,45.96,230.59,87.83,347.72,87.83,165.62,0,227.96-27.82,344.97-77.87,204-101,229.31-157.36,329.74-157.36Z" fill="#d58181" stroke-width="0"/>
</svg>