<?xml version="1.0" encoding="UTF-8"?>
<svg id="_1" data-name="1" xmlns="http://www.w3.org/2000/svg" version="1.1" viewBox="0 0 1920 1080">
  <path id="Inner_Mouth" data-name="Inner Mouth" d="M293.16,539.68c15.9-8.39,304.71-158.04,672.77-158.04s614.64,137.87,674.46,156.92c-49.1,47.51-365.38,407.85-685.7,407.85-276.11,0-555.57-290.04-661.53-406.72Z" fill="#801817" stroke-width="0"/>
  <path id="Tongue" d="M449.09,689.8c119.04-110.2,253.68-137.96,392.43-125.02,41.69,3.89,69.26,4.99,113.87,4.99s76.81-5.46,131.38-5.79c225.87-1.34,317.02,56.12,390.23,141.91-52.12,36.8-331.2,215.64-513.79,213.7-182.6-1.94-490.89-203.15-514.13-229.79Z" fill="#f2898b" stroke-width="0"/>
  <path id="Lower_Teeth" data-name="Lower Teeth" d="M520.67,766.75c25.7,5.11,49.19,10.04,69.11,17.7-6.3,15.57-11.37,27.47-13.62,36.09,11.37-14.32,14.1-21.44,26.72-31.66,3.21.12,65.01,11.73,65.01,11.73l-4.24,48.52,13.83-46.34,78.92,5.08,3.69,55.2,6.64-54.47,83.34,1.45,3.69,63.91,8.11-62.46,103.08,2.91,3.85,73.36,7.32-74.81,101.09.72,5.16,58.83,3.69-60.28,87.02-2.9,8.11,53.02v-55.2l71.54-7.99,13.28,53.74,3.69-55.2,81.87-2.18,5.9,33.05,4.43-33.77,58.27-3.63s5.91,15,11.6,34.6c-201.11,94.15-319.22,139.7-462.57,139.7-143.35,0-290.24-61.11-468.62-160.71,10.64-17.52,20.09-38.01,20.09-38.01Z" fill="#fff" stroke-width="0"/>
  <path id="Upper_teeth" data-name="Upper teeth" d="M478.72,467.14l88.15-22.36,17.7-38.74-1.36,41.72,105.93-32,13.77-32.92,4.92,32.93,120.95-5.23,7.86-49.39,3.93,49.39,132.75,4.84,9.5-55.2,8.67,55.2h124.42l10.14-39.68,6.1,35.57,118.78,10.13,9.68-20.17,8.17,22.47,97.02,25.37,8.49-22.14,16.93,30.58,85.79,21.11-10.03-41.94s-378.56-102.72-496.56-102.42c-107.26-3.74-468.26,85.62-491.7,92.2v40.67Z" fill="#fff" stroke-width="0"/>
  <path id="Upper_Lips" data-name="Upper Lips" d="M1642.02,538.79c-148.01-95.23-401.89-283.03-581.12-281.24-61.02,5.87-84.05,26.52-95.17,34.64-14.47-8.15-53.86-36.69-98.08-36.69-169.82-2.55-404.88,184-581.14,282.89,36.15,7.87,285.87-78.21,330.13-81.9,94.64-27.89,317.08-31.14,346.57-31.28s248.15-2.4,346.11,24.84c252.68,64,292,84.32,332.69,88.73Z" fill="#e18788" stroke-width="0"/>
  <path id="Lower_Lips" data-name="Lower Lips" d="M1642.02,538.79c-137.89,234.5-302.65,461.06-553.75,479.78-50.18,4.94-82.77,4.93-124.58,4.93-28.66,0-87.56,1.87-123.42-8-320.13-47.04-515.45-428.09-553.75-477.11,61.97-2.3,26.3,85.57,330.13,237.19,111.1,45.96,229.45,86.55,346.57,86.55,165.62,0,231.4-28.58,348.4-78.64,230.81-109.79,299.4-252.09,330.4-244.72Z" fill="#d18381" stroke-width="0"/>
</svg>