<?xml version="1.0" encoding="UTF-8"?>
<svg id="_18" data-name="18" xmlns="http://www.w3.org/2000/svg" version="1.1" viewBox="0 0 1920 1080">
  <path id="Inner_Mouth" data-name="Inner Mouth" d="M273.58,505.49c29.99-3.37,324.03-77.01,684.35-77.01s597.76,76.97,655.58,80.66c-55.97,16.64-338.97,141.34-652.56,141.34-270.3,0-609.72-122.26-687.37-144.99Z" fill="#801817" stroke-width="0"/>
  <path id="Tongue" d="M464.91,572.82c71.18-51.16,151.79-2.27,369.96-1.62,41.87.13,77.79,4.43,122.4,4.43s76.83-7.2,131.38-5.79c260.43,6.73,303.4-40.85,366.64,2.98-52.12,36.8-315.43,99.6-498.02,97.66-182.6-1.94-469.13-71.02-492.36-97.66Z" fill="#f2898b" stroke-width="0"/>
  <path id="Lower_Teeth" data-name="Lower Teeth" d="M506.41,535.71c27.54,4.56,47.7,8.15,70.15,11.41-6.11,10.94-9.7,17.86-11.95,24.08,9-7.46,14.92-14.62,25.85-22.31,3.21.09,65.1,8.36,65.1,8.36l-3.13,29.98,12.72-28.41,78.92,3.67,3.69,39.86,6.64-39.33,83.34,1.05,3.69,46.15,8.11-45.1,103.08,2.1,3.85,52.97,7.32-54.02,101.09.52,5.16,42.48,3.69-43.53,87.02-2.09,8.11,38.29v-39.86l77.58-6.26,7.24,39.29,3.69-39.86,81.87-1.57,5.9,23.87,4.43-24.38,73.37-15.71s7.97,15.39,13.67,29.54c-201.11,67.99-336.38,109.4-479.73,109.4-143.35,0-285.38-50.52-463.76-122.43,8.16-12.56,13.3-18.16,13.3-18.16Z" fill="#fff" stroke-width="0"/>
  <path id="Upper_teeth" data-name="Upper teeth" d="M467.72,515.5l90.62,6.38,15.23-42.07-1.45,44.68,105.55,10.69,14.25-78.56.56,80.09,120.51,10.94,12.66-112.72.1,112.72,129.19,4.74,16.89-118.43-5.14,119.09h131.74l7.15-94.98,3.91,93.78,121.02-8.39,13.45-57.3-1.54,53.57,103.15-9.7,8.69-24.47,4.52,20.34,79.64-10.91,17.55-4.54s-378.56-102.72-496.56-102.42c-107.26-3.74-468.26,85.62-491.7,92.2v15.27Z" fill="#fff" stroke-width="0"/>
  <path id="Upper_Lips" data-name="Upper Lips" d="M1613.5,509.15c-221.86-65.93-326.54-163.97-551.05-171.21-39.49,1.96-92.96,23.42-102.86,27.24-8.61-2.67-73.14-27.24-104.79-27.21-94.55-3.5-290.72,85.52-581.21,166.57,39.04,11.24,245.55,12.22,336.79,2.01,203.23-23.83,318.25-19.26,347.74-19.4,29.5-.14,249.46.77,350.37,15.64,152.1,22.41,251.2,18.97,305.03,6.38Z" fill="#e18788" stroke-width="0"/>
  <path id="Lower_Lips" data-name="Lower Lips" d="M1613.5,509.15c-178.39,115.81-457.78,177.65-522.21,179.89-60,2.8-89.58-3.84-131.38-3.84-28.66,0-77.37,4.53-122.4,3.84-100.5-1.26-415.93-72.65-563.93-184.51,48.93-1.18,74.59-2.05,339.76,34.82,123.28,10.69,231.81,19.28,348.94,19.11,165.02-.24,217.01-7.09,343.74-20.11,203.05-32.76,207.06-29.2,307.49-29.2Z" fill="#e18788" stroke-width="0"/>
</svg>