<?xml version="1.0" encoding="UTF-8"?>
<svg id="_20" data-name="20" xmlns="http://www.w3.org/2000/svg" version="1.1" viewBox="0 0 1920 1080">
  <path id="Inner_Mouth" data-name="Inner Mouth" d="M264.2,519.04c113.82-21.51,327.34-178.39,695.39-178.39s631.11,167.69,700.76,177.39c-38.35,36.01-275.43,431.93-699.11,425.92-423.69-6.01-674.45-405.25-697.04-424.92Z" fill="#801817" stroke-width="0"/>
  <path id="Tongue" d="M503.66,688.45c71.18-51.16,118-197.3,334.89-215.78,41.72-3.55,87.43,8.36,132.04,8.36s80.73-14.28,131.79-8.37c259.72,30.04,271.03,184.4,334.27,228.23-52.12,36.8-276.11,228.66-458.7,226.72-182.6-1.94-419.15-169.72-474.3-239.17Z" fill="#f2898b" stroke-width="0"/>
  <path id="Lower_Teeth" data-name="Lower Teeth" d="M520.37,735.66c27.54,6.32,47.7,11.28,70.15,15.8-6.11,15.15-9.7,24.73-11.95,33.35,9-10.33,14.92-20.25,25.85-30.89,3.21.12,65.1,11.58,65.1,11.58l-3.13,41.52,12.72-39.34,78.92,5.08,3.69,55.2,6.64-54.47,83.34,1.45,3.69,63.91,8.11-62.46,103.08,2.91,3.85,73.36,7.32-74.81,101.09.72,5.16,58.83,3.69-60.28,87.02-2.9,8.11,53.02v-55.2l77.58-8.66,7.24,54.41,3.69-55.2,81.87-2.18,5.9,33.05,4.43-33.77,73.37-21.75s7.97,21.31,13.67,40.91c-201.11,94.15-336.38,151.51-479.73,151.51-143.35,0-285.38-69.96-463.76-169.55,8.16-17.39,13.3-25.14,13.3-25.14Z" fill="#fff" stroke-width="0"/>
  <path id="Upper_teeth" data-name="Upper teeth" d="M498.59,425.4l88.31,3.19,14.84-21.04-1.42,22.34,102.86,5.34,13.89-39.28.54,40.05,117.44,5.47,12.34-56.36.1,56.36,125.9,2.37,16.46-59.22-5.01,59.55h128.39l6.97-47.49,3.81,46.89,117.94-4.19,13.11-28.65-1.5,26.79,100.52-4.85,8.46-12.23,4.41,10.17,77.61-5.45,17.11-2.27s-368.9-51.36-483.9-51.21c-104.52-1.87-456.32,42.81-479.17,46.1v7.63Z" fill="#fff" stroke-width="0"/>
  <path id="Upper_Lips" data-name="Upper Lips" d="M1660.35,518.04c-70.27-28.27-445.42-253.12-594.01-251.51-67.57,3.73-85.28,28.51-99.4,35.23-11.06-5.87-40.52-34.12-98.05-33.61-159.66,2.21-400.7,164.04-604.69,250.89,48.43,9.71,254.39-44.08,354.13-54.29,152.51-12.94,324.54-12.3,354.04-12.45,29.5-.14,236.78.24,339.56,10.45,201.72,20.04,312.02,61.57,348.42,55.29Z" fill="#e18788" stroke-width="0"/>
  <path id="Lower_Lips" data-name="Lower Lips" d="M1660.35,518.04c-91.57,181.66-300.24,435.33-561.57,480.14-58.38,12.09-91.11,12.36-132.91,12.36-28.66,0-48.5,2.24-120.87-12.89-251.23-71.23-406.88-233.17-580.79-478.61,41.46-3.89,129.91,98.33,356.62,218.46,108.62,44.54,206.15,69.32,346.57,69.32,157.53,0,243.72-12.45,348.66-59.94,193.17-109.96,306.95-233.96,344.3-228.85Z" fill="#d38281" stroke-width="0"/>
</svg>