<?xml version="1.0" encoding="UTF-8"?>
<svg id="_17" data-name="17" xmlns="http://www.w3.org/2000/svg" version="1.1" viewBox="0 0 1920 1080">
  <path id="Inner_Mouth" data-name="Inner Mouth" d="M274.69,521.84c30.64-7.83,319.3-135.08,687.35-135.08s619.44,125.41,678.5,133.98c-57.17,38.61-356.03,340.41-676.35,340.41-276.11,0-610.18-286.54-689.5-339.31Z" fill="#801817" stroke-width="0"/>
  <path id="Tongue" d="M488.17,590.44c-7-61.01,216.19-70.09,287.13-75.82,54.34-4.39,144.06-4.6,191.49-4.6s99.5,2.49,174.13,11.74c84.73,10.51,286.98,26.04,289.48,78.55,0,48.59-157.13,74.57-483.88,73.42-326.77-1.14-453.08-44.23-458.34-83.31Z" fill="#f2898b" stroke-width="0"/>
  <path id="Lower_Teeth" data-name="Lower Teeth" d="M515.91,622.75c27.54,6.32,47.7,11.28,70.15,15.8-6.11,15.15-9.7,24.73-11.95,33.35,9-10.33,14.92-20.25,25.85-30.89,3.21.12,65.1,11.58,65.1,11.58l-3.13,41.52,12.72-39.34,78.92,5.08,3.69,55.2,6.64-54.47,83.34,1.45,3.69,63.91,8.11-62.46,103.08,2.91,3.85,73.36,7.32-74.81,101.09.72,5.16,58.83,3.69-60.28,87.02-2.9,8.11,53.02v-55.2l77.58-8.66,7.24,54.41,3.69-55.2,81.87-2.18,5.9,33.05,4.43-33.77,73.37-21.75s7.97,21.31,13.67,40.91c-201.11,94.15-336.38,151.51-479.73,151.51-143.35,0-285.38-69.96-463.76-169.55,8.16-17.39,13.3-25.14,13.3-25.14Z" fill="#fff" stroke-width="0"/>
  <path id="Upper_teeth" data-name="Upper teeth" d="M471.13,529.05l90.62,6.38,15.23-42.07-1.45,44.68,105.55,10.69,14.25-78.56.56,80.09,120.51,10.94,12.66-112.72.1,112.72,129.19,4.74,16.89-118.43-5.14,119.09h131.74l7.15-94.98,3.91,93.78,121.02-8.39,13.45-57.3-1.54,53.57,103.15-9.7,8.69-24.47,4.52,20.34,79.64-10.91,17.55-4.54s-378.56-102.72-496.56-102.42c-107.26-3.74-468.26,85.62-491.7,92.2v15.27Z" fill="#fff" stroke-width="0"/>
  <path id="Upper_Lips" data-name="Upper Lips" d="M1643.09,518.82c-151.83-46.85-439.15-207.02-586.46-213.01-42.14-.14-83.91,28.23-94.96,34.5-11.06-5.87-46.42-36.68-108.37-33.61-82.38,1.02-418.03,151.35-578.82,214.73,113.23,45.51,360.35-14.49,446.39-23.73,57.07-4.54,182.45-13.81,248.17-13.81,29.5,0,142.8,8.47,212.36,10.82,113.36,3.83,332.53,76.66,461.68,24.11Z" fill="#e18788" stroke-width="0"/>
  <path id="Lower_Lips" data-name="Lower Lips" d="M1643.09,518.82c-121.53,134.81-291.57,374.7-555.57,411.47-60.77,8.94-87.02,9.3-128.83,9.3-28.66,0-85.89-3.24-122.4-11.41-243.23-42.14-351.72-202.25-561.6-406.34,24.34-3.23,73.92,5.08,337.43,171.87,108.94,52.77,229.52,59.45,346.57,63.66,162.45,5.85,219.49-13.12,346.11-62.81,150.48-56.53,193.79-175.74,338.3-175.74Z" fill="#d2837e" stroke-width="0"/>
</svg>