<?xml version="1.0" encoding="UTF-8"?>
<svg id="_5" data-name="5" xmlns="http://www.w3.org/2000/svg" version="1.1" viewBox="0 0 1920 1080">
  <path id="Inner_Mouth" data-name="Inner Mouth" d="M288.57,527.01c30.64-7.83,303.15-135.08,671.2-135.08s619.44,125.41,678.5,133.98c-57.17,38.61-356.03,340.41-676.35,340.41-276.11,0-594.03-286.53-673.35-339.3Z" fill="#801817" stroke-width="0"/>
  <path id="Tongue" d="M466.19,671.54c71.18-51.16,150.71-87.56,368.88-86.9,41.87.13,77.79,4.43,122.4,4.43s76.83-7.2,131.38-5.79c260.43,6.73,318.24,55.06,381.49,98.89-52.12,36.8-306.39,208.15-488.98,206.21-182.6-1.94-491.95-190.2-515.18-216.84Z" fill="#f2898b" stroke-width="0"/>
  <path id="Lower_Teeth" data-name="Lower Teeth" d="M513.45,608.26c25.7,5.11,49.19,10.04,69.11,17.7-6.3,15.57-11.37,27.47-13.62,36.09,11.37-14.32,14.1-21.44,26.72-31.66,3.21.12,65.01,11.73,65.01,11.73l-4.24,48.52,13.83-46.34,78.92,5.08,3.69,55.2,6.64-54.47,83.34,1.45,3.69,63.91,8.11-62.46,103.08,2.91,3.85,73.36,7.32-74.81,101.09.72,5.16,58.83,3.69-60.28,87.02-2.9,8.11,53.02v-55.2l71.54-7.99,13.28,53.74,3.69-55.2,81.87-2.18,5.9,33.05,4.43-33.77,58.27-3.63s5.91,15,11.6,34.6c-201.11,94.15-319.22,139.7-462.57,139.7-143.35,0-290.24-61.11-468.62-160.71,10.64-17.52,20.09-38.01,20.09-38.01Z" fill="#fff" stroke-width="0"/>
  <path id="Upper_teeth" data-name="Upper teeth" d="M465.78,517.84l88.41-11.35,17.44-49.74-1.45,44.68,105.55,10.69,14.25-78.56.56,80.09,120.51,10.94,12.66-112.72.1,112.72,129.19,4.74,16.89-118.43-5.14,119.09h131.74l7.15-94.98,3.91,93.78,121.02-8.39,13.45-57.3-1.54,53.57,103.15-9.7,8.69-24.47,14.04,12.77,78.89,8.43,8.78-16.3s-378.56-102.72-496.56-102.42c-107.26-3.74-468.26,85.62-491.7,92.2v40.67Z" fill="#fff" stroke-width="0"/>
  <path id="Upper_Lips" data-name="Upper Lips" d="M1640.83,525.89c-151.83-46.85-439.15-215.02-586.46-221.01-42.14-.14-84.01,21.65-95.96,31.5-11.06-5.87-45.42-33.68-107.37-30.61-82.38,1.02-411.23,164.94-570.82,220.73,145.77,3.01,378.65-24.64,438.39-28.73,50.55-1.27,182.45-6.81,248.17-6.81,29.5,0,142.8,1.47,212.36,3.82,113.36,3.83,313.56,25.25,461.68,31.11Z" fill="#e18788" stroke-width="0"/>
  <path id="Lower_Lips" data-name="Lower Lips" d="M1640.83,525.89c-121.53,134.81-291.57,345.7-555.57,382.47-60.77,8.94-87.02,6.3-128.83,6.3-28.66,0-85.89-3.24-122.4-11.41-241.87-51.4-346.72-172.25-556.6-376.34,24.34-3.23,52.38-21.19,332.43,129.87,114.89,43.75,229.45,63.66,346.57,63.66,165.62,0,224.83-22.98,346.11-62.81,152.43-46.47,193.79-131.74,338.3-131.74Z" fill="#d2837e" stroke-width="0"/>
</svg>