<?xml version="1.0" encoding="UTF-8"?>
<svg id="_14" data-name="14" xmlns="http://www.w3.org/2000/svg" version="1.1" viewBox="0 0 1920 1080">
  <path id="Inner_Mouth" data-name="Inner Mouth" d="M384.43,488.19c30.64-7.83,208.82-134.89,576.87-134.89s493.11,129.69,555.89,130.63c-57.17,38.61-235.57,311.01-555.89,311.01-276.11,0-448.53-226.07-576.87-306.76Z" fill="#801817" stroke-width="0"/>
  <path id="Tongue" d="M536.32,594.9c67.07-65.45,217.42-129.6,335.49-138.24,36.77-2.69,56.62,0,91.91,0s66.16,1.39,110.81,4.34c131.23,8.68,267.06,92.94,338.81,154.98-41.24,29.12-302.08,142.47-446.55,140.94-144.48-1.53-412.08-140.94-430.47-162.01Z" fill="#f2898b" stroke-width="0"/>
  <path id="Lower_Teeth" data-name="Lower Teeth" d="M512.05,549.97c25.7,5.11,49.19,10.04,69.11,17.7-6.3,15.57-11.37,27.47-13.62,36.09,11.37-14.32,14.1-21.44,26.72-31.66,3.21.12,65.01,11.73,65.01,11.73l-4.24,48.52,13.83-46.34,78.92,5.08,3.69,55.2,6.64-54.47,83.34,1.45,3.69,63.91,8.11-62.46,103.08,2.91,3.85,73.36,7.32-74.81,101.09.72,5.16,58.83,3.69-60.28,87.02-2.9,8.11,53.02v-55.2l77.84-6.89,6.98,52.64,1.7-53.66,83.86-3.72,5.9,33.05,4.43-33.77,58.27-3.63s5.91,15,11.6,34.6c-201.11,94.15-319.22,139.7-462.57,139.7s-290.24-61.11-468.62-160.71c10.64-17.52,20.09-38.01,20.09-38.01Z" fill="#fff" stroke-width="0"/>
  <path id="Upper_teeth" data-name="Upper teeth" d="M465.87,469.11l88.41-11.35,17.44-49.74-1.45,44.68,105.55,10.69,14.25-78.56.56,80.09,120.51,10.94,12.66-112.72.1,112.72,129.19,4.74,16.89-118.43-5.14,119.09h131.74l7.15-94.98,3.91,93.78,121.02-8.39,13.45-57.3-1.35,47.16,102.97-3.29,8.69-24.47,14.04,12.77,78.89,8.43,8.78-16.3s-378.56-102.72-496.56-102.42c-107.26-3.74-468.26,85.62-491.7,92.2v40.67Z" fill="#fff" stroke-width="0"/>
  <path id="Upper_Lips" data-name="Upper Lips" d="M1638.35,486.71c-268.5-38.65-384.92-226.23-579.31-225.44-41.28,2.72-91.46,34.36-99.48,36.24-5.21-3.96-55.09-33.78-98.91-33.78-179.14-1.2-280.92,159.48-580.6,224.77,179.67,46.54,312.44,5.69,342.06-4.01,132.26-56.17,309.06-35.94,338.55-36.09,29.5-.14,255.54-.5,343.6,34.44,47.89,19,179.3,31.26,334.09,3.86Z" fill="#e18788" stroke-width="0"/>
  <path id="Lower_Lips" data-name="Lower Lips" d="M1638.35,486.71c-183.63,146.3-249.19,336.51-546.89,384-60.77,8.94-88.41,13.79-130.21,13.79-28.66,0-72.89-4.78-123.57-12.77-273.87-50.04-303.32-168.25-557.62-383.23,113.87-17.87,219.57,40.6,333.45,111.6,76.6,41.84,291.06,84.77,346.57,84.77,75.72,0,201.51-9.23,346.11-81.4,80.09-48.68,139.66-121.36,332.17-116.77Z" fill="#d38281" stroke-width="0"/>
</svg>