<?xml version="1.0" encoding="UTF-8"?>
<svg id="_2" data-name="2" xmlns="http://www.w3.org/2000/svg" version="1.1" viewBox="0 0 1920 1080">
  <path id="Inner_Mouth" data-name="Inner Mouth" d="M286.24,540.31c42.25-12.25,315.1-161.41,683.15-161.41s614.11,143.46,673.93,162.5c-49.1,47.51-364.85,402.26-685.17,402.26-276.11,0-565.96-286.67-671.92-403.35Z" fill="#801817" stroke-width="0"/>
  <path id="Tongue" d="M446.96,696.4c84.77-82.72,246.64-122.55,396.26-122.45,47.51.03,68.79,7.92,113.4,7.92s76.81-5.46,131.38-5.79c225.87-1.34,317.02,56.12,390.23,141.91-52.12,36.8-331.2,215.64-513.79,213.7-182.6-1.94-494.25-208.65-517.48-235.29Z" fill="#f2898b" stroke-width="0"/>
  <path id="Lower_Teeth" data-name="Lower Teeth" d="M521.82,788.07c25.7,5.11,49.19,10.04,69.11,17.7-6.3,15.57-11.37,27.47-13.62,36.09,11.37-14.32,14.1-21.44,26.72-31.66,3.21.12,65.01,11.73,65.01,11.73l-4.24,48.52,13.83-46.34,78.92,5.08,3.69,55.2,6.64-54.47,83.34,1.45,3.69,63.91,8.11-62.46,103.08,2.91,3.85,73.36,7.32-74.81,101.09.72,5.16,58.83,3.69-60.28,87.02-2.9,8.11,53.02v-55.2l71.54-7.99,13.28,53.74,3.69-55.2,81.87-2.18,5.9,33.05,4.43-33.77,58.27-3.63s1.41-.31,7.11,19.3c-201.11,94.15-314.72,155-458.07,155-143.35,0-279.93-67.66-458.31-167.26,10.64-17.52,9.77-31.46,9.77-31.46Z" fill="#fff" stroke-width="0"/>
  <path id="Upper_teeth" data-name="Upper teeth" d="M475.09,485.8l88.15-22.36,17.7-38.74-1.36,41.72,105.93-32,13.77-32.92,4.92,32.93,120.95-5.23,7.86-49.39,3.93,49.39,132.75,4.84,9.5-55.2,8.67,55.2h124.42l10.14-39.68,6.1,35.57,118.78,10.13,9.68-20.17,8.17,22.47,97.02,25.37,8.49-22.14,16.93,30.58,85.79,21.11-10.03-41.94s-378.56-102.72-496.56-102.42c-107.26-3.74-468.26,85.62-491.7,92.2v40.67Z" fill="#fff" stroke-width="0"/>
  <path id="Upper_Lips" data-name="Upper Lips" d="M1643.32,541.41c-169.94-67.9-395.17-257.85-577.47-264.71-67.57,3.73-86.16,24.48-100.12,30.35-11.06-5.87-41.8-29.61-86.01-29.61-186.69-9.44-390.64,171.56-593.49,262.87,64.21-.68,263.87-61.44,343.78-73.7,121.28-15.32,314.72-10.25,344.21-10.4,29.5-.14,241.4-8.8,342.08,14.23,103.1,23.57,304.32,70.96,327,70.96Z" fill="#e18788" stroke-width="0"/>
  <path id="Lower_Lips" data-name="Lower Lips" d="M1642.3,540.7c-98.42,167.17-309.95,441.16-545.35,496.48-58.38,12.09-90.43,16.51-132.23,16.51-28.66,0-35.09,1.7-115.77-17.36-252.26-60.77-398.03-242.48-562.71-496.02,39.68-9.12,51.85,74.28,331.9,225.34,103.66,62.85,212.77,111.1,353.19,111.1,157.53,0,240.68-59.49,339.49-111.1,204-101,260.68-205.24,331.48-224.95Z" fill="#d58085" stroke-width="0"/>
</svg>