<?xml version="1.0" encoding="UTF-8"?>
<svg id="_10" data-name="10" xmlns="http://www.w3.org/2000/svg" version="1.1" viewBox="0 0 1920 1080">
  <path id="Inner_Mouth" data-name="Inner Mouth" d="M617.38,518.45c6.98-5.09,182.54-121.97,344.16-121.97s314.81,108.73,341.08,120.28c-21.56,28.81-205.35,222.18-346.01,222.18-121.25,0-292.7-149.74-339.23-220.5Z" fill="#801817" stroke-width="0"/>
  <path id="Tongue" d="M684.02,597.85c18.38-17.62,162.79,75.98,187.66,84.38,29.87,10.09,62.06,14.04,88.57,14.04s60.8-.37,101.39-18.76c37.51-16.98,170.04-104.94,184.74-83.63-47.49,40.73-104.78,183.62-287.37,181.68-182.6-1.94-251.74-151.06-274.98-177.7Z" fill="#f2898b" stroke-width="0"/>
  <path id="Lower_Teeth" data-name="Lower Teeth" d="M711.28,602.11c19.66,12.51,14.04,9.96,29.19,22.04-6.3,15.57-9.67,21.85-11.92,30.47,11.37-14.32,12.4-15.82,25.03-26.04,3.21.12,18.21,11.57,18.21,11.57l-4.24,48.52,13.83-46.34,27.18,19.78,3.69,55.2,6.64-54.47,28.64,17.99,3.69,63.91,8.11-62.46,103.08,2.91,3.85,73.36,7.32-74.81,101.09.72,5.16,58.83,3.69-60.28,29.95-23.07,8.11,53.02v-55.2l22.98-17.1,8.57,42.07,3.69-55.2,22.61-15.37,5.9,33.05,4.43-33.77,28.89-14.08s1.41-.31,7.11,19.3c-56.17,76.21-115.74,171.72-259.09,171.72-143.35,0-180.5-61.48-274.02-158.45,10.64-17.52,18.64-27.83,18.64-27.83Z" fill="#fff" stroke-width="0"/>
  <path id="Upper_teeth" data-name="Upper teeth" d="M722.91,421.01l41.97-10.64,8.43-18.44-.65,19.86,50.44-15.23,6.56-15.67,2.34,15.68,57.59-2.49,3.74-23.52,1.87,23.52,63.2,2.3,4.52-26.28,4.13,26.28h59.24l4.83-18.89,2.9,16.94,56.55,4.82,4.61-9.6,3.89,10.7,46.19,12.08,4.04-10.54,8.06,14.56,40.85,10.05-4.78-19.97s-180.24-48.91-236.42-48.76c-51.07-1.78-222.95,40.76-234.11,43.9v19.36Z" fill="#fff" stroke-width="0"/>
  <path id="Upper_Lips" data-name="Upper Lips" d="M1317.92,519.89c-25.09-43.32-211.73-252.76-290.02-247.77-47.76,4.29-60.18,21.9-69.01,28.92-10.1-8.72-34.49-31.44-73.81-30.29-57.96,3.1-217.67,141.58-284.62,251.29,176.35,16.07,163.59-50.32,206.74-72.91,50.68-26.68,84.68-34.7,153.67-34.7,41.26,0,100.09,8.13,154.75,49.12,53.11,39.83,52.6,89.36,202.28,56.34Z" fill="#e18788" stroke-width="0"/>
  <path id="Lower_Lips" data-name="Lower Lips" d="M1317.92,519.89c-103.31,152.85-135.26,198.51-232.68,269.74-51.4,26.21-85.15,32.74-126.96,32.74-28.66,0-69.79-8.69-125.62-35.58-103.49-56.17-168.17-183.49-232.18-264.75,169.21-11,170.99,54.11,230.48,105.77,47.49,37.45,65.88,45.88,127.15,45.88,98.81,0,132.25-34.73,179.23-88.43,54.74-60.95,98.72-64,180.58-65.37Z" fill="#d38281" stroke-width="0"/>
</svg>