<?xml version="1.0" encoding="UTF-8"?>
<svg id="_12" data-name="12" xmlns="http://www.w3.org/2000/svg" version="1.1" viewBox="0 0 1920 1080">
  <path id="Inner_Mouth" data-name="Inner Mouth" d="M283.37,523.08c113.82-21.51,342.61-162.9,710.66-162.9s571.35,153.03,641,162.73c-38.35,36.01-215.63,258.52-639.32,252.51-423.69-6.01-666.97-230.67-712.34-252.34Z" fill="#801817" stroke-width="0"/>
  <path id="Tongue" d="M554.7,630.79c49.79-54.13,242.56-55.46,301.45-54.34,42.72.81,67.21,8.35,102.51,8.35s118.47-8.35,145.68-8.35c144.83,0,250.03,24.47,296.49,66.34-41.24,29.12-292,201.94-436.47,200.4-144.48-1.53-391.27-191.33-409.66-212.4Z" fill="#f2898b" stroke-width="0"/>
  <path id="Lower_Teeth" data-name="Lower Teeth" d="M517.34,594.24c25.7,5.11,49.19,10.04,69.11,17.7-6.3,15.57-11.37,27.47-13.62,36.09,11.37-14.32,14.1-21.44,26.72-31.66,3.21.12,65.01,11.73,65.01,11.73l-4.24,48.52,13.83-46.34,78.92,5.08,3.69,55.2,6.64-54.47,83.34,1.45,3.69,63.91,8.11-62.46,103.08,2.91,3.85,73.36,7.32-74.81,101.09.72,5.16,58.83,3.69-60.28,87.02-2.9,8.11,53.02v-55.2l76.7-7.5,8.12,53.25,2.2-52.88,83.36-4.5,5.9,33.05,4.43-33.77,58.27-3.63s-25.78,9.91-20.08,29.51c-201.11,94.15-287.53,144.79-430.89,144.79-143.35,0-279.93-67.66-458.31-167.26,10.64-17.52,9.77-31.46,9.77-31.46Z" fill="#fff" stroke-width="0"/>
  <path id="Upper_teeth" data-name="Upper teeth" d="M463.06,490.58l88.15-22.36,17.7-38.74-1.36,41.72,105.93-32,13.77-32.92,4.92,32.93,120.95-5.23,7.86-49.39,3.93,49.39,132.75,4.84,9.5-55.2,8.67,55.2h124.42l10.14-39.68,6.1,35.57,118.78,10.13,9.68-20.17,8.17,22.47,97.02,25.37,8.49-22.14,16.93,30.58,85.79,21.11-10.03-41.94s-378.56-102.72-496.56-102.42c-107.26-3.74-468.26,85.62-491.7,92.2v40.67Z" fill="#fff" stroke-width="0"/>
  <path id="Upper_Lips" data-name="Upper Lips" d="M1635.03,522.91c-198.81-76.94-482.55-248.51-578.3-240.34-41.28,2.72-89.15,40.47-97.17,42.35-5.21-3.96-53.04-40.65-96.87-40.65-124.85-9.87-327.57,126.47-579.32,238.81,39.04,11.24,194.55-3.06,332.43-24.51,182.3-36.77,315.52-27.43,345.02-27.57,29.5-.14,188.9-6.14,347.66,25.53,302.04,60.26,284.86,32.39,326.55,26.38Z" fill="#e18788" stroke-width="0"/>
  <path id="Lower_Lips" data-name="Lower Lips" d="M1635.03,522.91c-218.19,221.28-282.64,312.68-541.28,369.36-58.38,12.09-89.58,12.77-131.38,12.77-28.66,0-50.04-1.16-122.4-16.3-253.53-86.08-288.77-144.29-556.6-365.66,41.11,6.33,98.04-22.98,332.43,98.04,154.72,59.75,207.83,83.49,348.26,83.49,157.53,0,239.49-16.09,344.43-63.58,253.53-148.59,289.11-111.79,326.55-118.13Z" fill="#d38281" stroke-width="0"/>
</svg>