<?xml version="1.0" encoding="UTF-8"?>
<svg id="_9" data-name="9" xmlns="http://www.w3.org/2000/svg" version="1.1" viewBox="0 0 1920 1080">
  <path id="Inner_Mouth" data-name="Inner Mouth" d="M284.69,526.4c15.9-8.39,300.2-178.47,668.25-178.47s658.08,176.28,678.98,177.35c-10.96,11.08-253.65,431.98-677.33,425.97-423.69-6.01-657.02-409.08-669.89-424.84Z" fill="#801817" stroke-width="0"/>
  <path id="Tongue" d="M439.87,674.29c106.15-89.72,263.77-121.72,403.34-118.34,51.42,1.24,72.21,8.37,120.85,8.37s94.98-10.04,143.66-8.35c231.27,8.01,278.48,58.97,369.96,148.1-56.83,40.13-306.71,221.55-505.8,219.44-199.1-2.12-506.68-220.16-532.01-249.21Z" fill="#f2898b" stroke-width="0"/>
  <path id="Lower_Teeth" data-name="Lower Teeth" d="M515.18,788.96c25.7,5.11,49.19,10.04,69.11,17.7-6.3,15.57-11.37,27.47-13.62,36.09,11.37-14.32,14.1-21.44,26.72-31.66,3.21.12,65.01,11.73,65.01,11.73l-4.24,48.52,13.83-46.34,78.92,5.08,3.69,55.2,6.64-54.47,83.34,1.45,3.69,63.91,8.11-62.46,103.08,2.91,3.85,73.36,7.32-74.81,101.09.72,5.16,58.83,3.69-60.28,87.02-2.9,8.11,53.02v-55.2l71.54-7.99,13.28,53.74,3.69-55.2,81.87-2.18,5.9,33.05,4.43-33.77,58.27-3.63s-25.78,9.91-20.08,29.51c-201.11,94.15-287.53,144.79-430.89,144.79-143.35,0-279.93-67.66-458.31-167.26,10.64-17.52,9.77-31.46,9.77-31.46Z" fill="#fff" stroke-width="0"/>
  <path id="Upper_teeth" data-name="Upper teeth" d="M472.39,478.01l88.15-22.36,17.7-38.74-1.36,41.72,105.93-32,13.77-32.92,4.92,32.93,120.95-5.23,7.86-49.39,3.93,49.39,132.75,4.84,9.5-55.2,8.67,55.2h124.42l10.14-39.68,6.1,35.57,118.78,10.13,9.68-20.17,8.17,22.47,97.02,25.37,8.49-22.14,16.93,30.58,85.79,21.11-10.03-41.94s-378.56-102.72-496.56-102.42c-107.26-3.74-468.26,85.62-491.7,92.2v40.67Z" fill="#fff" stroke-width="0"/>
  <path id="Upper_Lips" data-name="Upper Lips" d="M1639.7,524.32c-188.09-85.28-368.51-226-583.32-246.51-64,1.36-89.15,28.72-97.17,30.61-5.21-3.96-35.09-29.89-96.87-29.55-213.45,18.72-348.43,148.09-589.79,245.45,39.04,11.24,247.91-45.7,340.09-53.11,188.43-11.74,317.08-13.47,346.57-13.62s247.08-2.91,347.89,12.6c256.68,39.49,271.66,55.26,332.6,54.13Z" fill="#e18788" stroke-width="0"/>
  <path id="Lower_Lips" data-name="Lower Lips" d="M1639.7,524.32c-98.72,179.74-287.15,433.53-549.11,483.57-58.38,12.09-89.58,16.85-131.38,16.85-28.66,0-50.04-3.25-122.4-18.38-252.26-60.77-399.58-228.5-564.26-482.04,40.17-14.89,32.94,62.3,340.09,213.4,103.66,62.85,206.15,66.09,346.57,66.09,157.53,0,247.3-12.73,346.11-64.34,340.34-161.28,276.51-224,334.38-215.15Z" fill="#d38281" stroke-width="0"/>
</svg>