<?xml version="1.0" encoding="UTF-8"?>
<svg id="_13" data-name="13" xmlns="http://www.w3.org/2000/svg" version="1.1" viewBox="0 0 1920 1080">
  <path id="Inner_Mouth" data-name="Inner Mouth" d="M606.97,511.28c7.29-5.31,190.5-127.28,359.17-127.28s328.54,113.48,355.95,125.53c-22.5,30.06-214.3,231.87-361.1,231.87-126.54,0-305.46-156.28-354.02-230.11Z" fill="#801817" stroke-width="0"/>
  <path id="Tongue" d="M694.98,606.2c27.38-19.92,130.62-92.37,168.32-108.77,30.16-13.13,62.54-19.74,89.05-19.74s59.69,2.36,101.39,18.07c47.35,17.84,148.91,105.31,163.6,126.61-47.49,40.73-83.65,127.26-266.24,125.32-182.6-1.94-232.88-114.84-256.12-141.48Z" fill="#f2898b" stroke-width="0"/>
  <path id="Lower_Teeth" data-name="Lower Teeth" d="M713.62,630.09c19.66,12.51,14.04,9.96,29.19,22.04-6.3,15.57-9.67,21.85-11.92,30.47,11.37-14.32,12.4-15.82,25.03-26.04,3.21.12,18.21,11.57,18.21,11.57l-4.24,48.52,13.83-46.34,27.18,19.78,3.69,55.2,6.64-54.47,28.64,17.99,3.69,63.91,8.11-62.46,103.08,2.91,3.85,73.36,7.32-74.81,101.09.72,5.16,58.83,3.69-60.28,29.95-23.07,8.11,53.02v-55.2l22.98-17.1,8.57,42.07,3.69-55.2,22.61-15.37,5.9,33.05,4.43-33.77,28.89-14.08s1.41-.31,7.11,19.3c-56.17,76.21-115.74,171.72-259.09,171.72-143.35,0-180.5-61.48-274.02-158.45,10.64-17.52,18.64-27.83,18.64-27.83Z" fill="#fff" stroke-width="0"/>
  <path id="Upper_teeth" data-name="Upper teeth" d="M720.55,398.34l41.97-10.64,8.43-18.44-.65,19.86,50.44-15.23,6.56-15.67,2.34,15.68,57.59-2.49,3.74-23.52,1.87,23.52,63.2,2.3,4.52-26.28,4.13,26.28h59.24l4.83-18.89,2.9,16.94,56.55,4.82,4.61-9.6,3.89,10.7,46.19,12.08,4.04-10.54,8.06,14.56,40.85,10.05-4.78-19.97s-180.24-48.91-236.42-48.76c-51.07-1.78-222.95,40.76-234.11,43.9v19.36Z" fill="#fff" stroke-width="0"/>
  <path id="Upper_Lips" data-name="Upper Lips" d="M1413.18,524.41c-35.5-77.03-243.16-264.95-359.62-269.92-47.76,4.29-75.54,21.91-95.32,28.84-16.98-6.93-61.42-29.5-100.74-28.34-84.24-.5-281.11,159.54-356.08,271.47,235.82,14.54,171.92-32.78,294.26-87.97,50.68-26.68,87.02-35.47,164.54-36.03,58.91-.43,95.08,8.17,154.65,37.79,59.44,29.55,132.09,117.11,298.31,84.18Z" fill="#e18788" stroke-width="0"/>
  <path id="Lower_Lips" data-name="Lower Lips" d="M1413.18,524.41c-123.76,183.12-163.84,248.68-304.32,312.18-61.58,31.4-113.96,25.76-164.04,25.76-34.34,0-92.58-5.74-159.47-37.96-155.59-85.94-209.38-202.03-282.14-297.93,202.71-13.17,170.97,31.05,283.82,109.69,56.89,44.86,94.18,48.8,167.58,49.28,118.09.77,138.8-6.89,230.46-81.96,72.09-65.87,123.73-101.62,228.09-79.05Z" fill="#d38281" stroke-width="0"/>
</svg>