<?xml version="1.0" encoding="UTF-8"?>
<svg id="_8" data-name="8" xmlns="http://www.w3.org/2000/svg" version="1.1" viewBox="0 0 1920 1080">
  <path id="Inner_Mouth" data-name="Inner Mouth" d="M444,520.48c30.64-7.83,146.52-139.72,514.57-139.72s460.77,139.42,523.55,140.37c-57.17,38.61-201.76,301.28-522.08,301.28-276.11,0-387.71-221.24-516.05-301.92Z" fill="#801817" stroke-width="0"/>
  <path id="Tongue" d="M612,654.4c67.07-65.45,149.91-97.44,267.98-106.08,36.77-2.69,51.43-2.05,86.73-2.05s57.62-.07,102.21,3.58c178.12,14.58,178.04,64.34,244.43,129.02-41.24,29.12-196.47,127.32-340.94,125.79-144.48-1.53-342.02-129.19-360.4-150.26Z" fill="#f2898b" stroke-width="0"/>
  <path id="Lower_Teeth" data-name="Lower Teeth" d="M606.89,635.5c25.7,5.11,30.64,12.26,50.55,19.91-6.3,15.57-8.47,30.7-10.72,39.32,11.37-14.32,22.61-27.57,35.23-37.79,3.21.12,47.49,17.36,47.49,17.36l-19.4,47.49,25.53-46.47,41.87,14.81-7.15,51.06,22.98-50.55,49.02,5.09,3.69,63.91,8.11-62.46,103.08,22.01,3.85,73.36,7.32-74.81,99.82-1.16,5.16,58.83,3.69-60.28,88.29-20.12,8.11,53.02v-55.2l49.82-15.98,17.87,45.96-7.15-51.06,33.7-19.31,18.89,34.63-13.79-37.79,34.72-16.85s26.98,24.82,32.68,44.43c-201.11,94.15-235.39,154.46-378.74,154.47-143.35,0-207.31-62.64-385.68-162.24,10.64-17.52,31.15-33.59,31.15-33.59Z" fill="#fff" stroke-width="0"/>
  <path id="Upper_teeth" data-name="Upper teeth" d="M490.83,504.85l76.6-20.43,5.11-20.43,10.95,17.17,101.39-33.51,4.09-24.51,13.28,17.36,108.65-27.04,7.86-49.39,3.93,49.39,132.75,4.84,9.5-55.2,8.67,55.2h124.42l10.14-39.68,6.1,35.57,85.34,27.33,23.7-20.55-1.85,25.17,60.87,19.89,19.4-26.55-2.04,29.62,87.83,34.72,21.45-42.89s-338.44-124.04-456.44-123.74c-107.26-3.74-438.25,139.63-461.69,146.21v21.45Z" fill="#fff" stroke-width="0"/>
  <path id="Upper_Lips" data-name="Upper Lips" d="M1514.19,519.1c-137.94-85.13-362.28-264.19-460.01-253.3-51.54,6.64-80.14,32.68-95.6,33.19-16.7-1.02-41.5-29.87-96.87-28.6-149.62,2.55-332.94,177.19-454.47,251.74,54.13,6.47,165.96,1.02,208.34-10.72,183.83-69.96,313.51-78.49,343-78.13,125.25,1.53,237.08,43.91,346.1,76.08,142.21,30.29,154.41,12.96,209.51,9.73Z" fill="#e18788" stroke-width="0"/>
  <path id="Lower_Lips" data-name="Lower Lips" d="M1512.77,519.27c-123.42,135.28-229.11,272.15-422.81,319.98-60.77,8.94-92.08,11.92-133.88,11.92-28.66,0-83.39-2.65-119.9-10.82-224.17-78.2-251.74-133.01-430.36-318.03,113.87-17.87,235.56,80.51,336,121.02,31.81,12.08,99.64,44.95,216.77,45.27,121.85.34,171.21-10.89,279.83-70.49,89.62-45.25,116.68-118.27,274.36-98.84Z" fill="#d38281" stroke-width="0"/>
</svg>