<?xml version="1.0" encoding="UTF-8"?>
<svg id="_0" data-name="0" xmlns="http://www.w3.org/2000/svg" version="1.1" viewBox="0 0 1920 1080">
  <path id="Inner_Mouth" data-name="Inner Mouth" d="M271.38,539.02c18.83-3.61,304.45-136.48,672.5-136.48s647.12,134.29,709.9,135.24c-57.17,38.61-369.63,199.09-689.95,199.09-276.11,0-605.83-149.77-692.46-197.84Z" fill="#801817" stroke-width="0"/>
  <path id="Tongue" d="M471.71,620.3c71.18-51.16,151.79-58.27,369.96-57.62,41.87.13,77.79,4.43,122.4,4.43s76.83-7.2,131.38-5.79c260.43,6.73,303.4,15.15,366.64,58.98-52.12,36.8-315.43,153.6-498.02,151.66-182.6-1.94-469.13-125.02-492.36-151.66Z" fill="#f2898b" stroke-width="0"/>
  <path id="Lower_Teeth" data-name="Lower Teeth" d="M519.21,558.26c25.7,5.11,49.19,10.04,69.11,17.7-6.3,15.57-11.37,27.47-13.62,36.09,11.37-14.32,14.1-21.44,26.72-31.66,3.21.12,65.01,11.73,65.01,11.73l-4.24,48.52,13.83-46.34,78.92,5.08,3.69,55.2,6.64-54.47,83.34,1.45,3.69,63.91,8.11-62.46,103.08,2.91,3.85,73.36,7.32-74.81,101.09.72,5.16,58.83,3.69-60.28,87.02-2.9,8.11,53.02v-55.2l71.54-7.99,13.28,53.74,3.69-55.2,81.87-2.18,5.9,33.05,4.43-33.77,58.27-3.63s5.91,15,11.6,34.6c-201.11,94.15-319.22,139.7-462.57,139.7-143.35,0-290.24-61.11-468.62-160.71,10.64-17.52,20.09-38.01,20.09-38.01Z" fill="#fff" stroke-width="0"/>
  <path id="Upper_teeth" data-name="Upper teeth" d="M473.51,523.54l88.15-10.79,17.7-38.74-1.18,37.53,105.76-27.81,13.77-32.92,4.92,32.93,120.95-5.23,7.86-49.39,3.93,49.39,132.75,4.84,9.5-55.2,8.67,55.2h124.42l10.82-55.2,5.42,51.09,118.81-6.13,9.14-25.91,10.81,26.48,94.06,29.32.83-23.43,25.61,24.31,85.6,18.7-10.03-41.94s-378.56-118.26-496.56-117.96c-107.26-3.74-461.59,111.06-491.7,120.18v40.67Z" fill="#fff" stroke-width="0"/>
  <path id="Upper_Lips" data-name="Upper Lips" d="M1657.16,538.15c-31.58-11.55-407.48-229.5-589.61-229.5-67.57,3.73-87.47,40.5-101.42,46.37-11.06-5.87-51.13-44.68-95.34-44.68-61.28-10.98-395.42,141.83-599.41,228.68,41.4-3.92,254.87-5.98,350.45-5.32,189.38,2.72,317.08-.3,346.57-.44,29.5-.14,243.59.13,346.87,1,255.6,2.16,319.2,3.89,341.88,3.89Z" fill="#e18788" stroke-width="0"/>
  <path id="Lower_Lips" data-name="Lower Lips" d="M1657.16,538.15c-178.39,115.81-446.3,233.54-561.7,251.38-60,2.8-89.58-3.84-131.38-3.84-28.66,0-80.7,3.23-122.4,3.84-167.49-10.48-422.3-138.65-570.29-250.51,48.93-1.18,78.46-.39,346.12-1.18,123.57,0,231.81,2.28,348.94,2.11,165.02-.24,217.36-2.11,343.74-2.11,216.25,0,246.56.31,346.98.31Z" fill="#e18788" stroke-width="0"/>
</svg>