<?xml version="1.0" encoding="UTF-8"?>
<svg id="_7" data-name="7" xmlns="http://www.w3.org/2000/svg" version="1.1" viewBox="0 0 1920 1080">
  <path id="Inner_Mouth" data-name="Inner Mouth" d="M621.59,519.04c6.98-5.09,175.27-123.85,336.89-123.85s301.7,112.48,327.97,124.03c-21.56,28.81-192.24,218.43-332.9,218.43-121.25,0-285.43-147.85-331.96-218.61Z" fill="#801817" stroke-width="0"/>
  <path id="Tongue" d="M680.85,568.21c18.38-17.62,162.79,75.98,187.66,84.38,29.87,10.09,62.06,14.04,88.57,14.04s60.8-.37,101.39-18.76c37.51-16.98,170.04-104.94,184.74-83.63-47.49,40.73-104.78,183.62-287.37,181.68-182.6-1.94-251.74-151.06-274.98-177.7Z" fill="#f2898b" stroke-width="0"/>
  <path id="Lower_Teeth" data-name="Lower Teeth" d="M713.06,563.16c19.66,12.51,14.04,9.96,29.19,22.04-6.3,15.57-9.67,21.85-11.92,30.47,11.37-14.32,12.4-15.82,25.03-26.04,3.21.12,18.21,11.57,18.21,11.57l-4.24,48.52,13.83-46.34,27.18,19.78,3.69,55.2,6.64-54.47,28.64,17.99,3.69,63.91,8.11-62.46,103.08,2.91,3.85,73.36,7.32-74.81,101.09.72,5.16,58.83,3.69-60.28,29.95-23.07,8.11,53.02v-55.2l22.98-17.1,8.57,42.07,3.69-55.2,22.61-15.37,5.9,33.05,4.43-33.77,28.89-14.08s1.41-.31,7.11,19.3c-56.17,76.21-115.74,171.72-259.09,171.72-143.35,0-180.5-61.48-274.02-158.45,10.64-17.52,18.64-27.83,18.64-27.83Z" fill="#fff" stroke-width="0"/>
  <path id="Upper_teeth" data-name="Upper teeth" d="M723.22,454.15l41.97-10.64,8.43-18.44-.65,19.86,50.44-15.23,6.56-15.67,2.34,15.68,57.59-2.49,3.74-23.52,1.87,23.52,63.2,2.3,4.52-26.28,4.13,26.28h59.24l4.83-18.89,2.9,16.94,56.55,4.82,4.61-9.6,3.89,10.7,46.19,12.08,4.04-10.54,8.06,14.56,40.85,10.05-4.78-19.97s-180.24-48.91-236.42-48.76c-51.07-1.78-222.95,40.76-234.11,43.9v19.36Z" fill="#fff" stroke-width="0"/>
  <path id="Upper_Lips" data-name="Upper Lips" d="M1297.19,517.92c-32.87-31.39-172.11-209.43-269.28-212.5-32.7-.08-55.68,18.21-68.28,29.79-10.26-8.48-34.72-29.87-67.24-29.87-62.71-3.67-184.5,104.08-275.71,213.94,194.87,13.46,211.72-1.09,234.56-18.8,18.1-9.95,44.98-31.9,110.7-31.9,29.5,0,63.38,10.03,108.19,35.73,17.68,10.14,18.53,29.55,227.06,13.62Z" fill="#e18788" stroke-width="0"/>
  <path id="Lower_Lips" data-name="Lower Lips" d="M1297.19,517.92c-111.17,162.31-137.72,180.35-214.21,228.82-51.4,26.21-85.15,32.74-126.96,32.74-28.66,0-81.83-11.07-121.3-32.75-120.87-64.45-169.55-171.01-218.04-227.45,82.55-3.81,142.53-20.24,222.43,48.43,45.11,42.81,63.34,59.42,116.19,59.13,74.3-.4,68.43-17.51,136.94-76.64,55.82-56.27,147.74-28.19,204.95-32.28Z" fill="#d38281" stroke-width="0"/>
</svg>