<?xml version="1.0" encoding="UTF-8"?>
<svg id="_19" data-name="19" xmlns="http://www.w3.org/2000/svg" version="1.1" viewBox="0 0 1920 1080">
  <path id="Inner_Mouth" data-name="Inner Mouth" d="M302.95,539.74c30.64-7.83,289.82-128.89,657.87-128.89s617.11,120.69,679.89,121.63c-57.17,38.61-359.57,320.01-679.89,320.01-276.11,0-529.53-232.07-657.87-312.76Z" fill="#801817" stroke-width="0"/>
  <path id="Tongue" d="M535.84,635.45c67.07-65.45,217.42-129.6,335.49-138.24,36.77-2.69,56.62,0,91.91,0s66.16,1.39,110.81,4.34c131.23,8.68,267.06,92.94,338.81,154.98-41.24,29.12-302.08,142.47-446.55,140.94-144.48-1.53-412.08-140.94-430.47-162.01Z" fill="#f2898b" stroke-width="0"/>
  <path id="Lower_Teeth" data-name="Lower Teeth" d="M509.04,621.23c27.54,6.32,47.7,11.28,70.15,15.8-6.11,15.15-9.7,24.73-11.95,33.35,9-10.33,14.92-20.25,25.85-30.89,3.21.12,65.1,11.58,65.1,11.58l-3.13,41.52,12.72-39.34,78.92,5.08,3.69,55.2,6.64-54.47,83.34,1.45,3.69,63.91,8.11-62.46,103.08,2.91,3.85,73.36,7.32-74.81,101.09.72,5.16,58.83,3.69-60.28,87.02-2.9,8.11,53.02v-55.2l77.58-8.66,7.24,54.41,3.69-55.2,81.87-2.18,5.9,33.05,4.43-33.77,73.37-21.75s7.97,21.31,13.67,40.91c-201.11,94.15-336.38,151.51-479.73,151.51-143.35,0-285.38-69.96-463.76-169.55,8.16-17.39,13.3-25.14,13.3-25.14Z" fill="#fff" stroke-width="0"/>
  <path id="Upper_teeth" data-name="Upper teeth" d="M465.87,478.88l90.62,6.38,15.23-42.07-1.45,44.68,105.55,10.69,14.25-78.56.56,80.09,120.51,10.94,12.66-112.72.1,112.72,129.19,4.74,16.89-118.43-5.14,119.09h131.74l7.15-94.98,3.91,93.78,121.02-8.39,13.45-57.3-1.54,53.57,103.15-9.7,8.69-24.47,4.52,20.34,79.64-10.91,17.55-4.54s-378.56-102.72-496.56-102.42c-107.26-3.74-468.26,85.62-491.7,92.2v15.27Z" fill="#fff" stroke-width="0"/>
  <path id="Upper_Lips" data-name="Upper Lips" d="M1653.5,531.26c-221.86-65.93-415.02-223.49-587.62-220.43-39.49,1.96-89.97,39.79-99.87,43.61-8.61-2.67-56.9-40.04-103.36-42.08-131.23-4.6-334.47,106.21-592.45,222.68,39.04,11.24,255.43.47,356.06-24.01,150.6-27.1,309.06-20.94,338.55-21.09,29.5-.14,247.37,5.31,348.28,20.17,152.1,22.41,208.28,38.67,340.41,21.13Z" fill="#e18788" stroke-width="0"/>
  <path id="Lower_Lips" data-name="Lower Lips" d="M1648.87,531.26c-170.82,154.78-259.82,330.78-555.89,382-60.77,8.94-88.41,10.79-130.21,10.79-28.66,0-72.89-.78-123.57-8.77-273.47-58.57-319.32-165.25-573.62-380.23,113.37-2.12,229.04,77.21,349.45,137.6,76.6,41.84,291.06,57.77,346.57,57.77,75.72,0,198.46-3.05,346.11-66.4,91.02-37.32,168.35-106.65,341.17-132.77Z" fill="#d38281" stroke-width="0"/>
</svg>