<?xml version="1.0" encoding="UTF-8"?>
<svg id="_16" data-name="16" xmlns="http://www.w3.org/2000/svg" version="1.1" viewBox="0 0 1920 1080">
  <path id="Inner_Mouth" data-name="Inner Mouth" d="M626.6,524.88c6.98-5.09,175.27-123.85,336.89-123.85s301.7,112.48,327.97,124.03c-21.56,28.81-192.24,218.43-332.9,218.43-121.25,0-285.43-147.85-331.96-218.61Z" fill="#801817" stroke-width="0"/>
  <path id="Tongue" d="M713.45,533.5c27.38-19.92,130.62-92.37,168.32-108.77,30.16-13.13,62.54-19.74,89.05-19.74s59.69,2.36,101.39,18.07c47.35,17.84,148.91,105.31,163.6,126.61-47.49,40.73-83.65,127.26-266.24,125.32-182.6-1.94-232.88-114.84-256.12-141.48Z" fill="#f2898b" stroke-width="0"/>
  <path id="Lower_Teeth" data-name="Lower Teeth" d="M663.63,527.67c9.88,2.36,15.83,3.88,22.64,5.5-1.02,16.36,1.19,21.7-1.07,30.32,4.64-13.76,3.79-13.27,10.17-27.61,3.21.12,16.72,2.45,16.72,2.45l6.36,49.55,3.23-47.37,23.07,5.08,3.69,55.2,6.64-54.47,83.34,1.45,3.69,63.91,8.11-62.46,103.08,2.91,3.85,73.36,7.32-74.81,101.09.72,5.16,58.83,3.69-60.28,87.02-2.9,8.11,53.02v-55.2l28.75-2.57,7.24,54.41,3.69-55.2,22.11,4.72,5.9,33.05,4.43-33.77,22.82-9.96s-1.53,15.32-2.04,36.7c-35.23,43.47-161.53,130.94-304.88,130.94-143.35,0-124.69-51.27-303.07-150.87,8.16-17.39,9.14-24.65,9.14-24.65Z" fill="#fff" stroke-width="0"/>
  <path id="Upper_teeth" data-name="Upper teeth" d="M693.84,483.8l10.48,29.28,11.74-29.62-1.85,42.44,29.43,1.77,6.64-42.16-.68,43.57,61.18.66,5.88-52.06,2.04,54.13,133.55,3.35,7.05-101.39,5.19,100.89h131.74l5.26-75.67,5.11,74.91,66.53-3.86-13.66-72.78,20.77,69.11,29.11-2.04-2.04-42.38,12.26,41.83,9.5-33.81-5.38-22.48s-202.95-55.07-266.22-54.91c-57.5-2.01-251.05,45.9-263.62,49.43v21.8Z" fill="#fff" stroke-width="0"/>
  <path id="Upper_Lips" data-name="Upper Lips" d="M1297.82,527.32c-135.83-108.26-174.98-219.23-266.98-215.57-31.4.77-60.09,16.17-70.36,19.15-7.68-2.21-55.38-18.13-73.81-18.38-71.06-1.43-76.94,44.94-266.72,213.2,146.38,31.4,206.26-25.41,218.13-32.18,23.49-17.87,72.85-34.3,122.4-34.72,37.93-.33,74.02,3.32,135.75,38.55,24.08,15.39,89.03,59.74,201.59,29.96Z" fill="#e18788" stroke-width="0"/>
  <path id="Lower_Lips" data-name="Lower Lips" d="M1297.32,527.32c-66.28,113.16-135.9,179.99-212.39,228.45-51.4,26.21-85.15,32.74-126.96,32.74-28.66,0-81.83-11.07-121.3-32.75-120.87-64.45-188.01-192.64-216.72-230.05,128.46-11.1,153.82,36.22,209.22,73.16,19.66,12.43,61.02,33.02,128.89,33.3,74.3.3,92.13-13.55,153.11-50.79,63.7-49.33,131.84-65.64,186.15-54.06Z" fill="#d38281" stroke-width="0"/>
</svg>