<svg version="1.1" id="Layer_1" xmlns="http://www.w3.org/2000/svg" xmlns:xlink="http://www.w3.org/1999/xlink" x="0px" y="0px"
	 width="100%" viewBox="0 0 961 570" enable-background="new 0 0 961 570" xml:space="preserve">
<path fill="#FFFFFF" opacity="1.000000" stroke="none" 
	d="
M625.000000,571.000000 
	C416.666656,571.000000 208.833328,571.000000 1.000000,571.000000 
	C1.000000,381.000000 1.000000,191.000000 1.000000,1.000000 
	C321.333344,1.000000 641.666687,1.000000 962.000000,1.000000 
	C962.000000,191.000000 962.000000,381.000000 962.000000,571.000000 
	C849.833313,571.000000 737.666687,571.000000 625.000000,571.000000 
M204.396500,416.374786 
	C210.861038,422.118744 217.038574,428.231079 223.845886,433.535126 
	C241.667557,447.421204 259.764252,460.954346 278.119385,475.147308 
	C296.488647,485.796448 314.734772,496.667053 333.289001,506.983521 
	C340.491333,510.988159 348.389801,513.740906 356.474731,517.571167 
	C383.450043,528.038757 411.072662,535.947021 440.832123,538.940979 
	C469.773407,542.293762 498.544952,541.297974 527.982727,535.525391 
	C549.986633,531.500366 571.274902,525.020569 591.883423,516.397217 
	C601.067078,512.554504 609.966614,508.032745 619.678894,503.729401 
	C651.278198,486.967041 681.420898,468.045288 708.767578,443.809357 
	C715.656616,438.082245 722.883301,432.710754 729.366821,426.556366 
	C744.438354,412.249786 759.151550,397.565674 774.630371,382.780334 
	C781.402161,375.447235 788.493164,368.380493 794.881226,360.727112 
	C809.423401,343.304138 823.620605,325.593170 838.433472,307.517090 
	C844.264038,300.116547 851.126953,293.303070 855.731567,285.205414 
	C869.554016,260.896912 882.432373,236.053116 895.809448,211.489182 
	C901.525818,200.992569 907.564880,190.671738 914.090271,179.153748 
	C900.278809,168.850586 887.073242,157.874191 872.735657,148.659180 
	C861.228271,141.263184 848.348389,136.002686 835.717346,129.194901 
	C830.127686,126.403870 824.525024,123.638451 818.950806,120.816811 
	C804.625244,113.565239 790.312378,106.288742 775.520813,98.513809 
	C760.288452,91.976654 745.113586,85.300079 729.789246,78.986107 
	C725.104065,77.055679 720.008484,76.121109 714.656555,74.140045 
	C705.857178,71.205009 697.238403,67.408569 688.220032,65.518059 
	C670.597168,61.823753 652.751160,59.194221 634.144470,55.931602 
	C616.159729,54.219681 598.095947,54.166386 580.368469,57.335506 
	C563.745422,60.307182 547.442566,65.069206 530.258667,69.120346 
	C516.606445,75.066994 502.812225,80.711868 489.345184,87.051819 
	C477.696991,92.535492 466.543915,92.519447 454.934204,87.054558 
	C442.498230,81.200722 429.790222,75.924706 416.609100,70.031921 
	C382.796417,57.607452 347.910156,52.816093 311.167389,55.189266 
	C301.495392,56.451462 291.643585,56.941345 282.190033,59.141949 
	C264.338440,63.297447 246.715927,68.437042 228.264938,73.186096 
	C201.621429,82.347015 175.910767,93.683777 150.070724,106.574409 
	C148.045898,107.646790 146.022476,108.721870 143.996017,109.791122 
	C124.983910,119.822701 105.971291,129.853287 86.244377,139.964218 
	C65.874947,150.741684 47.193676,163.835403 30.906668,179.874298 
	C44.311413,204.384766 57.524979,228.584183 70.779366,252.761230 
	C75.722580,261.778046 80.761139,270.742615 85.742752,280.401642 
	C88.283348,284.457397 90.499664,288.766052 93.427544,292.519745 
	C101.101089,302.357727 109.047661,311.984253 116.956673,321.636627 
	C123.918510,330.133057 130.976700,338.550507 138.150620,347.660004 
	C145.473969,355.854340 152.498947,364.341217 160.184952,372.179962 
	C174.623871,386.905762 189.444748,401.257019 204.396500,416.374786 
z"/>
<path fill="#BC2427" opacity="1.000000" stroke="none" 
	d="
M618.995117,503.819153 
	C609.966614,508.032745 601.067078,512.554504 591.883423,516.397217 
	C571.274902,525.020569 549.986633,531.500366 527.523071,535.040039 
	C527.042358,487.016754 527.048462,439.478729 526.956543,391.940887 
	C526.947632,387.332581 526.331848,382.725433 526.422607,378.017151 
	C557.514282,373.763763 588.181213,369.610962 618.889832,365.959229 
	C618.952759,412.246582 618.973938,458.032898 618.995117,503.819153 
z"/>
<path fill="#B02225" opacity="1.000000" stroke="none" 
	d="
M525.997742,378.117767 
	C526.331848,382.725433 526.947632,387.332581 526.956543,391.940887 
	C527.048462,439.478729 527.042358,487.016754 527.097656,535.063599 
	C498.544952,541.297974 469.773407,542.293762 440.485657,538.424927 
	C440.426147,535.623413 440.960999,533.338196 440.963409,531.052490 
	C441.012207,484.732697 441.026306,438.412842 440.956268,392.093079 
	C440.949799,387.807709 440.330902,383.523285 440.439575,379.175110 
	C449.371918,379.389832 457.859283,379.792969 466.350677,379.914215 
	C476.990845,380.066193 487.641541,380.237396 498.274231,379.931549 
	C507.525116,379.665466 516.757263,378.747589 525.997742,378.117767 
z"/>
<path fill="#A42024" opacity="1.000000" stroke="none" 
	d="
M439.996338,379.238403 
	C440.330902,383.523285 440.949799,387.807709 440.956268,392.093079 
	C441.026306,438.412842 441.012207,484.732697 440.963409,531.052490 
	C440.960999,533.338196 440.426147,535.623413 440.069702,538.302307 
	C411.072662,535.947021 383.450043,528.038757 356.434082,517.014038 
	C357.262268,513.929382 358.875244,511.405579 358.887604,508.873932 
	C359.055023,474.648132 359.021881,440.421173 358.959045,406.194641 
	C358.953949,403.413330 358.138611,400.636505 358.096558,397.851624 
	C357.962372,388.970306 358.015472,380.086182 358.399414,371.167145 
	C360.603149,371.424316 362.393799,371.820618 364.205780,371.995087 
	C389.467621,374.427307 414.732330,376.829163 439.996338,379.238403 
z"/>
<path fill="#9F2024" opacity="1.000000" stroke="none" 
	d="
M311.998016,55.318520 
	C347.910156,52.816093 382.796417,57.607452 416.850098,70.722260 
	C417.060699,102.507965 417.063904,133.603455 416.950409,164.698517 
	C416.938446,167.973373 416.238953,171.245728 415.416687,174.536209 
	C396.839203,172.471603 378.703491,170.390045 360.327789,168.280930 
	C356.842834,183.325851 353.433594,198.044052 349.744385,213.970779 
	C348.372070,211.762634 347.338501,210.769608 347.098480,209.612030 
	C343.881531,194.097824 335.503204,181.445190 325.109314,169.953949 
	C321.581757,166.053955 318.055817,161.837601 311.999084,161.489624 
	C311.999115,125.806511 311.998566,90.562515 311.998016,55.318520 
z"/>
<path fill="#DB292B" opacity="1.000000" stroke="none" 
	d="
M775.994385,99.022217 
	C790.312378,106.288742 804.625244,113.565239 818.950806,120.816811 
	C824.525024,123.638451 830.127686,126.403870 835.874634,129.976562 
	C836.021301,188.204514 835.994568,245.650833 836.082153,303.096954 
	C836.084656,304.731995 837.305298,306.365173 837.957947,307.999268 
	C823.620605,325.593170 809.423401,343.304138 794.881226,360.727112 
	C788.493164,368.380493 781.402161,375.447235 774.316345,382.470581 
	C774.334839,375.399597 774.899231,368.640320 774.954407,361.876862 
	C775.092590,344.947449 775.065369,328.015717 774.943115,311.086029 
	C774.919556,307.822266 774.160889,304.563782 773.938049,301.056824 
	C777.559631,298.185547 781.010559,295.593445 784.401855,292.925507 
	C787.662537,290.360352 790.909668,287.773651 794.073730,285.091400 
	C797.185242,282.453735 800.184753,279.684113 803.233459,276.972382 
	C802.918579,276.626709 802.603638,276.281067 802.288696,275.935425 
	C784.710083,281.494232 767.642273,288.105957 752.759399,299.969666 
	C751.900513,298.254089 751.078918,296.636047 751.060608,295.008972 
	C750.947388,284.944672 751.014893,274.878357 751.386475,264.642578 
	C754.400024,263.209869 757.852478,262.605530 759.536438,260.551422 
	C763.368408,255.877121 766.556519,250.618011 769.544617,245.335373 
	C770.843079,243.039886 771.816467,241.776886 774.712891,242.026123 
	C779.505920,242.438538 783.073120,240.000473 785.163269,235.791595 
	C786.840820,232.413345 788.067932,228.811386 789.662231,224.898178 
	C798.419250,226.200302 807.406006,226.224182 814.471619,219.857056 
	C818.445374,216.276031 821.192261,211.333481 824.805298,206.891266 
	C825.347961,205.973022 825.577271,205.167831 825.770996,204.035828 
	C826.038635,203.141708 826.341919,202.574402 826.874756,201.939713 
	C827.127930,201.267609 827.151550,200.662872 827.138428,199.689026 
	C827.308289,198.881439 827.514954,198.442978 827.943604,197.930450 
	C828.168701,197.256943 828.171936,196.657547 828.135925,195.689117 
	C828.301758,194.881882 828.506836,194.443665 828.934448,193.932495 
	C829.166199,193.259903 829.175415,192.660248 829.129150,191.662918 
	C829.292908,190.510818 829.512146,189.756409 829.981934,188.901642 
	C830.216797,187.888031 830.201111,186.974762 830.112183,185.671768 
	C830.210571,184.522919 830.382141,183.763794 830.837402,182.910583 
	C830.798950,181.861725 830.476868,180.906937 829.740723,179.984833 
	C825.179871,179.068237 821.045715,178.058701 816.883789,177.180847 
	C803.593994,174.377762 790.293884,171.623566 776.936401,168.445465 
	C776.583252,165.930511 776.044800,163.821365 776.038269,161.710571 
	C775.973267,140.814606 775.996277,119.918373 775.994385,99.022217 
z"/>
<path fill="#BE2427" opacity="1.000000" stroke="none" 
	d="
M530.998779,69.043411 
	C547.442566,65.069206 563.745422,60.307182 580.368469,57.335506 
	C598.095947,54.166386 616.159729,54.219681 634.572021,56.488247 
	C634.998535,91.962364 634.997559,126.879829 634.586548,161.895294 
	C628.121338,161.525177 624.052124,164.669403 620.051575,168.856567 
	C608.679871,180.758804 601.116272,194.738785 596.082336,210.256516 
	C595.855225,210.956711 594.964355,211.441574 594.382629,212.026733 
	C593.914612,211.305573 593.194031,210.639755 593.021851,209.853775 
	C592.239929,206.285599 591.702820,202.663528 590.912476,199.097443 
	C588.652466,188.900192 586.312317,178.720734 583.959656,168.340057 
	C580.051453,168.772491 576.606995,169.160065 573.161133,169.533752 
	C559.440857,171.021667 545.720093,172.505295 531.999756,173.522446 
	C532.000000,140.993591 532.023193,108.932762 531.956665,76.872116 
	C531.951233,74.261887 531.332520,71.652946 530.998779,69.043411 
z"/>
<path fill="#AF2226" opacity="1.000000" stroke="none" 
	d="
M530.628723,69.081879 
	C531.332520,71.652946 531.951233,74.261887 531.956665,76.872116 
	C532.023193,108.932762 532.000000,140.993591 531.620605,173.677841 
	C519.226562,175.739548 507.223724,177.291412 495.188995,178.535065 
	C492.233368,178.840515 490.900208,180.108307 489.987213,182.730270 
	C485.414612,195.862091 480.719116,208.951141 475.873901,222.129913 
	C475.714386,222.749725 475.747833,223.294830 475.819702,224.246140 
	C475.177826,228.101151 474.497467,231.549957 473.446777,234.998932 
	C472.088562,234.999283 471.100739,234.999451 470.016418,234.588837 
	C469.897552,233.845596 469.894379,233.510529 469.850067,233.181000 
	C467.378601,214.816193 460.251190,197.900818 453.396667,180.919754 
	C452.957458,179.831772 450.927704,178.943756 449.530579,178.754395 
	C438.321106,177.235092 427.085846,175.906311 415.858459,174.519241 
	C416.238953,171.245728 416.938446,167.973373 416.950409,164.698517 
	C417.063904,133.603455 417.060699,102.507965 417.145996,70.904556 
	C429.790222,75.924706 442.498230,81.200722 454.934204,87.054558 
	C466.543915,92.519447 477.696991,92.535492 489.345184,87.051819 
	C502.812225,80.711868 516.606445,75.066994 530.628723,69.081879 
z"/>
<path fill="#C92628" opacity="1.000000" stroke="none" 
	d="
M619.337036,503.774292 
	C618.973938,458.032898 618.952759,412.246582 619.227051,365.801331 
	C648.815735,359.069183 677.274597,350.262573 705.009949,339.470337 
	C705.347168,342.836212 705.950317,345.781433 705.957214,348.728058 
	C706.027405,378.480072 705.958130,408.232483 706.092224,437.984039 
	C706.101318,440.011536 707.430969,442.033051 708.146484,444.057343 
	C681.420898,468.045288 651.278198,486.967041 619.337036,503.774292 
z"/>
<path fill="#991E23" opacity="1.000000" stroke="none" 
	d="
M357.996246,371.203125 
	C358.015472,380.086182 357.962372,388.970306 358.096558,397.851624 
	C358.138611,400.636505 358.953949,403.413330 358.959045,406.194641 
	C359.021881,440.421173 359.055023,474.648132 358.887604,508.873932 
	C358.875244,511.405579 357.262268,513.929382 356.182251,516.760376 
	C348.389801,513.740906 340.491333,510.988159 333.289001,506.983521 
	C314.734772,496.667053 296.488647,485.796448 278.098053,474.470154 
	C278.629578,470.072235 279.575287,466.359192 279.648834,462.628967 
	C279.778961,456.026611 279.227173,449.413452 279.243103,442.805481 
	C279.259003,436.199860 279.792145,429.594818 279.782654,422.989960 
	C279.773163,416.384003 279.165070,409.777649 279.195160,403.173187 
	C279.234314,394.568695 279.830841,385.966064 279.839142,377.362305 
	C279.846832,369.426392 279.394165,361.490021 279.541565,353.593048 
	C305.520569,361.432343 331.586182,367.082825 357.996246,371.203125 
z"/>
<path fill="#7D1A20" opacity="1.000000" stroke="none" 
	d="
M86.958817,139.884155 
	C105.971291,129.853287 124.983910,119.822701 143.996017,109.791122 
	C146.022476,108.721870 148.045898,107.646790 150.591309,106.920425 
	C151.407944,109.379677 151.947876,111.491280 151.961975,113.606392 
	C152.090836,132.923050 152.128220,152.240341 151.847595,171.714508 
	C138.959259,174.649780 126.415627,177.428009 113.882988,180.203796 
	C113.882988,182.125107 113.882988,183.599899 113.656258,185.243423 
	C113.755501,186.273300 114.081467,187.134445 114.598900,188.347382 
	C114.816505,189.491867 114.842644,190.284576 114.670303,191.203186 
	C114.745590,191.886276 115.019356,192.443436 115.516205,193.302673 
	C115.772865,194.097824 115.806419,194.590881 115.645866,195.210922 
	C115.721840,195.893921 115.991920,196.449966 116.491211,197.304291 
	C116.762314,198.095657 116.804199,198.588745 116.625092,199.283295 
	C117.107010,200.987885 117.809914,202.491013 118.717659,204.235367 
	C119.064888,205.083572 119.207283,205.690552 119.264359,206.673889 
	C120.021149,208.360077 120.863251,209.669876 121.963516,211.234268 
	C125.873741,220.297989 133.642578,223.229828 141.991638,225.782715 
	C141.995499,238.945511 142.072769,251.661926 141.952042,264.376465 
	C141.917984,267.963043 141.304062,271.544067 140.668243,275.190704 
	C139.992691,275.235626 139.604996,275.217499 139.130264,275.034058 
	C138.943054,274.802032 138.842880,274.735291 138.742706,274.668518 
	C138.894135,274.852081 139.045563,275.035675 139.402695,275.396423 
	C140.091232,275.733429 140.574081,275.893280 141.042358,276.015015 
	C141.027771,275.976898 140.962708,275.927582 140.879272,276.258911 
	C141.517410,277.444397 142.238968,278.298584 142.958527,279.566132 
	C142.637695,282.762421 142.055878,285.544067 142.042755,288.328430 
	C141.958847,306.130554 141.980743,323.933258 142.019257,341.735718 
	C142.025482,344.617737 141.977386,347.262817 137.992355,347.002838 
	C130.976700,338.550507 123.918510,330.133057 116.956673,321.636627 
	C109.047661,311.984253 101.101089,302.357727 93.427544,292.519745 
	C90.499664,288.766052 88.283348,284.457397 85.821991,279.590302 
	C86.267418,276.334534 86.949982,273.890472 86.952820,271.445618 
	C87.003761,227.591858 86.972473,183.737991 86.958817,139.884155 
z"/>
<path fill="#931E23" opacity="1.000000" stroke="none" 
	d="
M311.582703,55.253891 
	C311.998566,90.562515 311.999115,125.806511 311.571167,161.551086 
	C304.720490,161.446548 298.269562,161.050064 291.885101,160.170898 
	C286.695312,159.456253 282.510315,160.874496 278.750061,164.401154 
	C271.132935,171.545090 267.803589,180.838959 265.292786,190.578568 
	C264.497284,193.664398 263.706543,196.751465 262.614441,201.002731 
	C255.436279,189.529495 248.722916,179.284790 242.550949,168.723679 
	C239.589005,163.655334 236.573669,159.735138 230.001495,160.625763 
	C230.000565,133.596146 230.026367,107.041428 229.956390,80.486954 
	C229.949966,78.046364 229.332138,75.607384 228.998199,73.167648 
	C246.715927,68.437042 264.338440,63.297447 282.190033,59.141949 
	C291.643585,56.941345 301.495392,56.451462 311.582703,55.253891 
z"/>
<path fill="#CA2629" opacity="1.000000" stroke="none" 
	d="
M634.996582,161.797302 
	C634.997559,126.879829 634.998535,91.962364 634.998535,56.584381 
	C652.751160,59.194221 670.597168,61.823753 688.220032,65.518059 
	C697.238403,67.408569 705.857178,71.205009 714.849365,74.921219 
	C715.028503,104.169151 715.014893,132.635910 714.566284,161.198746 
	C708.064697,159.950531 704.579407,162.677429 701.665527,167.950317 
	C696.293579,177.671249 690.250610,187.022034 684.453735,196.506577 
	C683.725220,197.698547 682.794434,198.766907 681.458008,200.564087 
	C680.805115,197.770691 680.520935,195.817108 679.889038,193.983307 
	C677.513428,187.088486 675.609375,179.949127 672.446960,173.425797 
	C667.090759,162.377106 660.833740,159.432831 648.903564,160.708984 
	C644.281982,161.203354 639.633057,161.442108 634.996582,161.797302 
z"/>
<path fill="#8F1D22" opacity="1.000000" stroke="none" 
	d="
M279.144287,353.553864 
	C279.394165,361.490021 279.846832,369.426392 279.839142,377.362305 
	C279.830841,385.966064 279.234314,394.568695 279.195160,403.173187 
	C279.165070,409.777649 279.773163,416.384003 279.782654,422.989960 
	C279.792145,429.594818 279.259003,436.199860 279.243103,442.805481 
	C279.227173,449.413452 279.778961,456.026611 279.648834,462.628967 
	C279.575287,466.359192 278.629578,470.072235 277.914001,474.210571 
	C259.764252,460.954346 241.667557,447.421204 223.845886,433.535126 
	C217.038574,428.231079 210.861038,422.118744 204.501892,415.790649 
	C205.026138,414.714203 205.777023,414.244812 205.812790,413.726135 
	C206.198807,408.127777 206.746567,402.520233 206.717560,396.917969 
	C206.662674,386.319214 206.004745,375.720856 206.063278,365.124908 
	C206.139221,351.376495 206.670074,337.630585 207.365234,323.922394 
	C230.767517,335.669647 254.332870,346.115387 279.144287,353.553864 
z"/>
<path fill="#E42B2C" opacity="1.000000" stroke="none" 
	d="
M838.195679,307.758179 
	C837.305298,306.365173 836.084656,304.731995 836.082153,303.096954 
	C835.994568,245.650833 836.021301,188.204514 836.054749,130.276382 
	C848.348389,136.002686 861.228271,141.263184 872.735657,148.659180 
	C887.073242,157.874191 900.278809,168.850586 914.090271,179.153748 
	C907.564880,190.671738 901.525818,200.992569 895.809448,211.489182 
	C882.432373,236.053116 869.554016,260.896912 855.731567,285.205414 
	C851.126953,293.303070 844.264038,300.116547 838.195679,307.758179 
z"/>
<path fill="#D3282A" opacity="1.000000" stroke="none" 
	d="
M708.457031,443.933350 
	C707.430969,442.033051 706.101318,440.011536 706.092224,437.984039 
	C705.958130,408.232483 706.027405,378.480072 705.957214,348.728058 
	C705.950317,345.781433 705.347168,342.836212 705.337463,339.307861 
	C716.215088,333.668915 727.046265,329.099823 737.267578,323.431000 
	C749.694031,316.539185 761.606506,308.720520 773.741333,301.302856 
	C774.160889,304.563782 774.919556,307.822266 774.943115,311.086029 
	C775.065369,328.015717 775.092590,344.947449 774.954407,361.876862 
	C774.899231,368.640320 774.334839,375.399597 774.006165,382.597656 
	C759.151550,397.565674 744.438354,412.249786 729.366821,426.556366 
	C722.883301,432.710754 715.656616,438.082245 708.457031,443.933350 
z"/>
<path fill="#881C22" opacity="1.000000" stroke="none" 
	d="
M228.631561,73.176880 
	C229.332138,75.607384 229.949966,78.046364 229.956390,80.486954 
	C230.026367,107.041428 230.000565,133.596146 229.590286,160.757385 
	C218.588058,161.363968 207.996399,161.363968 197.197342,161.363968 
	C195.896759,171.991074 194.740845,181.436111 193.445953,192.016693 
	C189.136673,187.812653 185.627945,184.389740 182.119308,180.966705 
	C166.919250,166.137375 172.605972,167.692093 152.192322,171.557434 
	C152.128220,152.240341 152.090836,132.923050 151.961975,113.606392 
	C151.947876,111.491280 151.407944,109.379677 150.951935,106.833725 
	C175.910767,93.683777 201.621429,82.347015 228.631561,73.176880 
z"/>
<path fill="#861C22" opacity="1.000000" stroke="none" 
	d="
M207.005112,323.883575 
	C206.670074,337.630585 206.139221,351.376495 206.063278,365.124908 
	C206.004745,375.720856 206.662674,386.319214 206.717560,396.917969 
	C206.746567,402.520233 206.198807,408.127777 205.812790,413.726135 
	C205.777023,414.244812 205.026138,414.714203 204.357056,415.485229 
	C189.444748,401.257019 174.623871,386.905762 160.184952,372.179962 
	C152.498947,364.341217 145.473969,355.854340 138.071487,347.331421 
	C141.977386,347.262817 142.025482,344.617737 142.019257,341.735718 
	C141.980743,323.933258 141.958847,306.130554 142.042755,288.328430 
	C142.055878,285.544067 142.637695,282.762421 143.276077,279.658691 
	C146.978668,282.279327 150.109665,285.590271 153.787628,288.099487 
	C171.445740,300.146332 189.251678,311.976471 207.005112,323.883575 
z"/>
<path fill="#D3282A" opacity="1.000000" stroke="none" 
	d="
M715.001221,161.102676 
	C715.014893,132.635910 715.028503,104.169151 715.071533,75.216446 
	C720.008484,76.121109 725.104065,77.055679 729.789246,78.986107 
	C745.113586,85.300079 760.288452,91.976654 775.757568,98.768013 
	C775.996277,119.918373 775.973267,140.814606 776.038269,161.710571 
	C776.044800,163.821365 776.583252,165.930511 776.589233,168.573090 
	C774.461792,170.125443 772.324097,170.828568 770.832703,172.222961 
	C765.968079,176.771149 761.343140,181.575485 756.617615,186.272827 
	C754.943970,187.936600 753.246155,189.576111 750.797729,191.972000 
	C749.503357,181.288147 748.368835,171.923218 747.222412,162.460403 
	C736.213562,161.996521 725.607422,161.549591 715.001221,161.102676 
z"/>
<path fill="#781B21" opacity="1.000000" stroke="none" 
	d="
M86.601593,139.924194 
	C86.972473,183.737991 87.003761,227.591858 86.952820,271.445618 
	C86.949982,273.890472 86.267418,276.334534 85.828720,279.254974 
	C80.761139,270.742615 75.722580,261.778046 70.779366,252.761230 
	C57.524979,228.584183 44.311413,204.384766 30.906668,179.874298 
	C47.193676,163.835403 65.874947,150.741684 86.601593,139.924194 
z"/>
<path fill="#FEFCFC" opacity="1.000000" stroke="none" 
	d="
M207.365234,323.922394 
	C189.251678,311.976471 171.445740,300.146332 153.787628,288.099487 
	C150.109665,285.590271 146.978668,282.279327 143.278076,279.245300 
	C142.238968,278.298584 141.517410,277.444397 141.271088,276.224915 
	C146.295364,277.407593 150.897934,278.815399 155.383713,280.528931 
	C170.893616,286.453583 185.841522,293.294373 196.836823,306.485901 
	C197.543579,307.333801 199.129333,307.945496 200.251450,307.868591 
	C206.511490,307.439575 212.754669,306.764343 219.362503,306.332947 
	C226.516846,306.426971 232.385849,309.249054 237.734573,312.945374 
	C243.730957,317.089264 249.299805,321.847687 255.138336,326.227203 
	C256.489502,327.240692 258.280823,328.620483 259.699554,328.446350 
	C278.049377,326.193604 295.239655,329.694214 311.715088,338.573608 
	C315.806152,341.330719 319.671234,343.818237 323.775696,346.459808 
	C326.701874,339.841370 331.963593,336.708069 338.446503,336.426483 
	C347.080048,336.051483 355.749512,336.546783 364.403931,336.596069 
	C374.682861,336.654602 383.804657,339.003540 389.152405,349.682220 
	C393.710205,341.509399 400.435181,339.335785 408.537689,339.631836 
	C412.676910,339.783112 416.843231,339.191162 421.459961,339.017365 
	C422.753418,339.091125 423.584717,339.061035 424.415070,339.077332 
	C440.141052,339.385681 456.035004,338.162292 471.105804,344.413940 
	C472.074310,344.815704 473.536835,344.054047 474.763092,343.802216 
	C481.069458,342.507050 487.338776,340.326569 493.685608,340.073395 
	C509.100983,339.458557 524.552063,339.737976 540.379089,339.769379 
	C547.470459,339.957886 551.541565,344.264771 555.244507,349.561279 
	C559.204102,342.204376 564.690796,337.684479 572.656006,337.242371 
	C582.774536,336.680695 592.912354,336.357971 603.045898,336.213623 
	C610.714111,336.104401 617.070312,338.735138 620.545166,346.692291 
	C622.524170,345.317291 624.167725,343.889221 626.047546,342.918854 
	C633.992188,338.817993 642.007202,334.853394 650.386963,330.842346 
	C660.958557,327.799957 671.395813,327.187317 681.855042,328.359985 
	C685.656799,328.786194 687.910706,327.644043 690.496338,325.145508 
	C703.471497,312.607635 717.993713,303.242462 737.128418,307.088409 
	C744.716064,308.613495 749.418579,306.050140 753.168091,300.062988 
	C767.642273,288.105957 784.710083,281.494232 802.288696,275.935425 
	C802.603638,276.281067 802.918579,276.626709 803.233459,276.972382 
	C800.184753,279.684113 797.185242,282.453735 794.073730,285.091400 
	C790.909668,287.773651 787.662537,290.360352 784.401855,292.925507 
	C781.010559,295.593445 777.559631,298.185547 773.938049,301.056824 
	C761.606506,308.720520 749.694031,316.539185 737.267578,323.431000 
	C727.046265,329.099823 716.215088,333.668915 705.326660,338.887909 
	C677.274597,350.262573 648.815735,359.069183 619.185303,365.300232 
	C588.181213,369.610962 557.514282,373.763763 526.422607,378.017151 
	C516.757263,378.747589 507.525116,379.665466 498.274231,379.931549 
	C487.641541,380.237396 476.990845,380.066193 466.350677,379.914215 
	C457.859283,379.792969 449.371918,379.389832 440.439575,379.175110 
	C414.732330,376.829163 389.467621,374.427307 364.205780,371.995087 
	C362.393799,371.820618 360.603149,371.424316 358.399414,371.167145 
	C331.586182,367.082825 305.520569,361.432343 279.541565,353.593048 
	C254.332870,346.115387 230.767517,335.669647 207.365234,323.922394 
z"/>
<path fill="#FEFEFE" opacity="1.000000" stroke="none" 
	d="
M151.847595,171.714508 
	C172.605972,167.692093 166.919250,166.137375 182.119308,180.966705 
	C185.627945,184.389740 189.136673,187.812653 193.445953,192.016693 
	C194.740845,181.436111 195.896759,171.991074 197.197342,161.363968 
	C207.996399,161.363968 218.588058,161.363968 229.590912,161.232361 
	C236.573669,159.735138 239.589005,163.655334 242.550949,168.723679 
	C248.722916,179.284790 255.436279,189.529495 262.614441,201.002731 
	C263.706543,196.751465 264.497284,193.664398 265.292786,190.578568 
	C267.803589,180.838959 271.132935,171.545090 278.750061,164.401154 
	C282.510315,160.874496 286.695312,159.456253 291.885101,160.170898 
	C298.269562,161.050064 304.720490,161.446548 311.570587,161.990204 
	C318.055817,161.837601 321.581757,166.053955 325.109314,169.953949 
	C335.503204,181.445190 343.881531,194.097824 347.098480,209.612030 
	C347.338501,210.769608 348.372070,211.762634 349.744385,213.970779 
	C353.433594,198.044052 356.842834,183.325851 360.327789,168.280930 
	C378.703491,170.390045 396.839203,172.471603 415.416687,174.536209 
	C427.085846,175.906311 438.321106,177.235092 449.530579,178.754395 
	C450.927704,178.943756 452.957458,179.831772 453.396667,180.919754 
	C460.251190,197.900818 467.378601,214.816193 469.850067,233.181000 
	C469.894379,233.510529 469.897552,233.845596 469.942535,235.051636 
	C469.924896,249.251144 471.882294,262.731750 467.104156,275.693146 
	C466.471649,277.408844 465.430969,279.630341 463.981659,280.275787 
	C457.509155,283.158600 450.996796,286.301239 444.160248,287.921600 
	C436.973694,289.624908 429.401886,289.702881 421.587402,290.422211 
	C406.153717,289.375214 391.040863,289.105682 376.135559,287.206818 
	C362.941193,285.525909 354.515869,277.134308 350.952606,264.155640 
	C350.730804,263.347809 350.274353,262.604401 349.705597,261.337860 
	C347.936829,264.292175 346.888275,267.079681 344.972260,269.003113 
	C342.028076,271.958679 338.863434,275.416077 335.119965,276.699493 
	C327.980286,279.147278 320.366211,280.211487 312.491638,281.764740 
	C303.367462,282.298004 295.180267,280.718414 286.782501,278.219391 
	C278.022339,275.612549 271.799225,271.318359 268.682953,262.815552 
	C267.231323,258.854706 266.168121,254.751556 264.767181,250.186188 
	C260.734009,254.410614 257.468903,258.748901 253.322693,261.943604 
	C248.000900,266.044128 242.300201,270.008820 236.157120,272.591400 
	C229.484436,275.396606 223.714233,270.955872 217.980743,267.344055 
	C216.030731,265.327759 213.997910,263.778503 212.493256,261.822876 
	C210.043396,258.638702 208.336807,258.983917 204.830963,261.077667 
	C195.802673,266.469574 189.952133,267.225372 182.816895,258.723602 
	C179.459137,254.722794 177.346298,249.697906 174.406967,245.312927 
	C173.485962,243.938904 171.691452,242.210007 170.326157,242.235214 
	C164.058517,242.350983 160.356812,239.101212 157.989548,233.840729 
	C156.713318,231.004761 155.769302,228.019318 154.763245,225.335617 
	C150.272934,225.335617 146.131470,225.335617 141.990021,225.335617 
	C133.642578,223.229828 125.873741,220.297989 121.925674,210.906738 
	C120.869667,208.982269 120.109673,207.639893 119.349678,206.297516 
	C119.207283,205.690552 119.064888,205.083572 118.719879,203.905823 
	C117.960197,201.917297 117.403137,200.499573 116.846085,199.081833 
	C116.804199,198.588745 116.762314,198.095657 116.585968,197.056335 
	C116.247665,196.034729 116.043823,195.559341 115.839981,195.083954 
	C115.806419,194.590881 115.772865,194.097824 115.609940,193.055206 
	C115.276649,192.029541 115.072716,191.553406 114.868782,191.077286 
	C114.842644,190.284576 114.816505,189.491867 114.699387,188.052414 
	C114.366600,186.628677 114.124794,185.851700 113.882988,185.074707 
	C113.882988,183.599899 113.882988,182.125107 113.882988,180.203796 
	C126.415627,177.428009 138.959259,174.649780 151.847595,171.714508 
z"/>
<path fill="#FFFEFE" opacity="1.000000" stroke="none" 
	d="
M714.566284,161.198746 
	C725.607422,161.549591 736.213562,161.996521 747.222412,162.460403 
	C748.368835,171.923218 749.503357,181.288147 750.797729,191.972000 
	C753.246155,189.576111 754.943970,187.936600 756.617615,186.272827 
	C761.343140,181.575485 765.968079,176.771149 770.832703,172.222961 
	C772.324097,170.828568 774.461792,170.125443 776.650635,168.978134 
	C790.293884,171.623566 803.593994,174.377762 816.883789,177.180847 
	C821.045715,178.058701 825.179871,179.068237 829.934204,180.332825 
	C830.545593,181.433655 830.549683,182.219147 830.553711,183.004654 
	C830.382141,183.763794 830.210571,184.522919 829.934814,185.929932 
	C829.797607,187.385895 829.764465,188.193939 829.731384,189.001999 
	C829.512146,189.756409 829.292908,190.510818 828.952148,191.866394 
	C828.791077,192.980194 828.751526,193.492828 828.711975,194.005463 
	C828.506836,194.443665 828.301758,194.881882 827.954590,195.890930 
	C827.782227,196.976028 827.751953,197.490280 827.721680,198.004547 
	C827.514954,198.442978 827.308289,198.881439 826.957581,199.886780 
	C826.757446,200.971497 826.701355,201.489304 826.645264,202.007111 
	C826.341919,202.574402 826.038635,203.141708 825.507263,204.206482 
	C825.016724,205.470734 824.754333,206.237534 824.491943,207.004333 
	C821.192261,211.333481 818.445374,216.276031 814.471619,219.857056 
	C807.406006,226.224182 798.419250,226.200302 789.662231,224.898178 
	C788.067932,228.811386 786.840820,232.413345 785.163269,235.791595 
	C783.073120,240.000473 779.505920,242.438538 774.712891,242.026123 
	C771.816467,241.776886 770.843079,243.039886 769.544617,245.335373 
	C766.556519,250.618011 763.368408,255.877121 759.536438,260.551422 
	C757.852478,262.605530 754.400024,263.209869 750.977417,264.498230 
	C745.116211,262.840210 740.028076,261.156372 733.478882,258.989014 
	C731.842529,260.895355 729.731445,263.965302 727.036255,266.384369 
	C717.575012,274.876251 708.970520,275.557190 698.642517,268.295380 
	C694.205322,265.175446 690.373596,261.160583 686.436829,257.375458 
	C684.091980,255.120895 682.077454,252.522812 679.405518,249.504150 
	C678.800659,252.120743 678.385864,253.843201 678.005127,255.573135 
	C675.162415,268.490448 667.980408,277.862762 654.185303,278.354309 
	C652.389587,278.418274 650.613586,279.033905 648.392700,279.399353 
	C639.435730,279.583405 630.796570,280.716797 622.424744,279.683868 
	C613.265320,278.553802 603.274109,277.569763 598.152954,267.603699 
	C597.078308,265.512329 595.778503,263.536682 594.240417,260.927521 
	C593.740723,262.507721 593.459229,263.275421 593.254700,264.063080 
	C589.730591,277.633453 580.632935,285.238434 567.183350,287.598602 
	C558.530701,289.116974 549.735046,289.820618 540.544922,290.788330 
	C533.110107,290.463806 526.103027,290.576172 519.164734,289.938721 
	C508.632324,288.971008 497.963287,289.007568 487.907684,284.559784 
	C481.259979,281.619415 476.065308,278.197296 475.548370,270.196381 
	C475.390381,267.750824 474.502686,265.352356 474.066742,262.721069 
	C474.057983,262.062622 473.931671,261.615479 473.852295,260.690674 
	C473.871857,251.808289 473.844482,243.403534 473.817139,234.998779 
	C474.497467,231.549957 475.177826,228.101151 475.975708,224.058472 
	C476.084473,222.994827 476.075653,222.525024 476.066833,222.055222 
	C480.719116,208.951141 485.414612,195.862091 489.987213,182.730270 
	C490.900208,180.108307 492.233368,178.840515 495.188995,178.535065 
	C507.223724,177.291412 519.226562,175.739548 531.620361,174.145905 
	C545.720093,172.505295 559.440857,171.021667 573.161133,169.533752 
	C576.606995,169.160065 580.051453,168.772491 583.959656,168.340057 
	C586.312317,178.720734 588.652466,188.900192 590.912476,199.097443 
	C591.702820,202.663528 592.239929,206.285599 593.021851,209.853775 
	C593.194031,210.639755 593.914612,211.305573 594.382629,212.026733 
	C594.964355,211.441574 595.855225,210.956711 596.082336,210.256516 
	C601.116272,194.738785 608.679871,180.758804 620.051575,168.856567 
	C624.052124,164.669403 628.121338,161.525177 634.586548,161.895294 
	C639.633057,161.442108 644.281982,161.203354 648.903564,160.708984 
	C660.833740,159.432831 667.090759,162.377106 672.446960,173.425797 
	C675.609375,179.949127 677.513428,187.088486 679.889038,193.983307 
	C680.520935,195.817108 680.805115,197.770691 681.458008,200.564087 
	C682.794434,198.766907 683.725220,197.698547 684.453735,196.506577 
	C690.250610,187.022034 696.293579,177.671249 701.665527,167.950317 
	C704.579407,162.677429 708.064697,159.950531 714.566284,161.198746 
z"/>
<path fill="#CD282A" opacity="1.000000" stroke="none" 
	d="
M648.828491,279.394012 
	C650.613586,279.033905 652.389587,278.418274 654.185303,278.354309 
	C667.980408,277.862762 675.162415,268.490448 678.005127,255.573135 
	C678.385864,253.843201 678.800659,252.120743 679.405518,249.504150 
	C682.077454,252.522812 684.091980,255.120895 686.436829,257.375458 
	C690.373596,261.160583 694.205322,265.175446 698.642517,268.295380 
	C708.970520,275.557190 717.575012,274.876251 727.036255,266.384369 
	C729.731445,263.965302 731.842529,260.895355 733.478882,258.989014 
	C740.028076,261.156372 745.116211,262.840210 750.613342,264.668396 
	C751.014893,274.878357 750.947388,284.944672 751.060608,295.008972 
	C751.078918,296.636047 751.900513,298.254089 752.759399,299.969666 
	C749.418579,306.050140 744.716064,308.613495 737.128418,307.088409 
	C717.993713,303.242462 703.471497,312.607635 690.496338,325.145508 
	C687.910706,327.644043 685.656799,328.786194 681.855042,328.359985 
	C671.395813,327.187317 660.958557,327.799957 650.385864,330.439178 
	C649.667358,325.500977 649.122498,320.972534 649.055176,316.437042 
	C648.871704,304.090973 648.890076,291.741882 648.828491,279.394012 
z"/>
<path fill="#E42B2C" opacity="1.000000" stroke="none" 
	d="
M829.981934,188.901642 
	C829.764465,188.193939 829.797607,187.385895 830.008057,186.319672 
	C830.201111,186.974762 830.216797,187.888031 829.981934,188.901642 
z"/>
<path fill="#E42B2C" opacity="1.000000" stroke="none" 
	d="
M830.837402,182.910583 
	C830.549683,182.219147 830.545593,181.433655 830.348145,180.300140 
	C830.476868,180.906937 830.798950,181.861725 830.837402,182.910583 
z"/>
<path fill="#E42B2C" opacity="1.000000" stroke="none" 
	d="
M824.805298,206.891266 
	C824.754333,206.237534 825.016724,205.470734 825.542847,204.533295 
	C825.577271,205.167831 825.347961,205.973022 824.805298,206.891266 
z"/>
<path fill="#E42B2C" opacity="1.000000" stroke="none" 
	d="
M826.874756,201.939728 
	C826.701355,201.489304 826.757446,200.971497 826.994385,200.255920 
	C827.151550,200.662872 827.127930,201.267609 826.874756,201.939728 
z"/>
<path fill="#E42B2C" opacity="1.000000" stroke="none" 
	d="
M827.943604,197.930450 
	C827.751953,197.490280 827.782227,196.976028 827.993774,196.259949 
	C828.171936,196.657547 828.168701,197.256943 827.943604,197.930450 
z"/>
<path fill="#E42B2C" opacity="1.000000" stroke="none" 
	d="
M828.934448,193.932495 
	C828.751526,193.492828 828.791077,192.980194 829.007629,192.264084 
	C829.175415,192.660248 829.166199,193.259903 828.934448,193.932495 
z"/>
<path fill="#AF2226" opacity="1.000000" stroke="none" 
	d="
M473.446777,234.998932 
	C473.844482,243.403534 473.871857,251.808289 473.677368,260.786316 
	C473.620087,261.883850 473.784637,262.408081 473.949158,262.932343 
	C474.502686,265.352356 475.390381,267.750824 475.548370,270.196381 
	C476.065308,278.197296 481.259979,281.619415 487.907684,284.559784 
	C497.963287,289.007568 508.632324,288.971008 519.164734,289.938721 
	C526.103027,290.576172 533.110107,290.463806 540.543823,291.264771 
	C541.000793,296.671509 541.099182,301.503143 540.980042,306.329437 
	C540.705811,317.440063 540.325806,328.548035 539.988708,339.657104 
	C524.552063,339.737976 509.100983,339.458557 493.685608,340.073395 
	C487.338776,340.326569 481.069458,342.507050 474.763092,343.802216 
	C473.536835,344.054047 472.074310,344.815704 471.105804,344.413940 
	C456.035004,338.162292 440.141052,339.385681 424.415070,339.077332 
	C423.584717,339.061035 422.753418,339.091125 421.517456,338.606689 
	C421.408203,336.003906 421.948578,333.895386 421.960327,331.783905 
	C422.036987,318.019989 421.998962,304.255432 421.998444,290.491089 
	C429.401886,289.702881 436.973694,289.624908 444.160248,287.921600 
	C450.996796,286.301239 457.509155,283.158600 463.981659,280.275787 
	C465.430969,279.630341 466.471649,277.408844 467.104156,275.693146 
	C471.882294,262.731750 469.924896,249.251144 470.039001,235.462418 
	C471.100739,234.999451 472.088562,234.999283 473.446777,234.998932 
z"/>
<path fill="#E42B2C" opacity="1.000000" stroke="none" 
	d="
M475.873901,222.129913 
	C476.075653,222.525024 476.084473,222.994827 475.937286,223.652283 
	C475.747833,223.294830 475.714386,222.749725 475.873901,222.129913 
z"/>
<path fill="#861C22" opacity="1.000000" stroke="none" 
	d="
M141.991638,225.782715 
	C146.131470,225.335617 150.272934,225.335617 154.763245,225.335617 
	C155.769302,228.019318 156.713318,231.004761 157.989548,233.840729 
	C160.356812,239.101212 164.058517,242.350983 170.326157,242.235214 
	C171.691452,242.210007 173.485962,243.938904 174.406967,245.312927 
	C177.346298,249.697906 179.459137,254.722794 182.816895,258.723602 
	C189.952133,267.225372 195.802673,266.469574 204.830963,261.077667 
	C208.336807,258.983917 210.043396,258.638702 212.493256,261.822876 
	C213.997910,263.778503 216.030731,265.327759 217.941528,267.836700 
	C218.372299,281.133698 218.687958,293.653473 219.003601,306.173279 
	C212.754669,306.764343 206.511490,307.439575 200.251450,307.868591 
	C199.129333,307.945496 197.543579,307.333801 196.836823,306.485901 
	C185.841522,293.294373 170.893616,286.453583 155.383713,280.528931 
	C150.897934,278.815399 146.295364,277.407593 141.354523,275.893616 
	C140.962708,275.927582 141.027771,275.976898 141.046448,275.780487 
	C141.065140,275.584076 140.956085,275.127655 140.956085,275.127655 
	C141.304062,271.544067 141.917984,267.963043 141.952042,264.376465 
	C142.072769,251.661926 141.995499,238.945511 141.991638,225.782715 
z"/>
<path fill="#9F2024" opacity="1.000000" stroke="none" 
	d="
M116.625092,199.283295 
	C117.403137,200.499573 117.960197,201.917297 118.515038,203.664581 
	C117.809914,202.491013 117.107010,200.987885 116.625092,199.283295 
z"/>
<path fill="#9F2024" opacity="1.000000" stroke="none" 
	d="
M119.264359,206.673889 
	C120.109673,207.639893 120.869667,208.982269 121.667511,210.652161 
	C120.863251,209.669876 120.021149,208.360077 119.264359,206.673889 
z"/>
<path fill="#9F2024" opacity="1.000000" stroke="none" 
	d="
M113.656258,185.243423 
	C114.124794,185.851700 114.366600,186.628677 114.507919,187.700638 
	C114.081467,187.134445 113.755501,186.273300 113.656258,185.243423 
z"/>
<path fill="#9F2024" opacity="1.000000" stroke="none" 
	d="
M115.645874,195.210922 
	C116.043823,195.559341 116.247665,196.034729 116.356750,196.758057 
	C115.991920,196.449966 115.721840,195.893921 115.645874,195.210922 
z"/>
<path fill="#9F2024" opacity="1.000000" stroke="none" 
	d="
M114.670303,191.203186 
	C115.072716,191.553406 115.276649,192.029541 115.386848,192.753143 
	C115.019356,192.443436 114.745590,191.886276 114.670303,191.203186 
z"/>
<path fill="#FEFCFC" opacity="1.000000" stroke="none" 
	d="
M140.668243,275.190704 
	C140.956085,275.127655 141.065140,275.584076 141.061035,275.818604 
	C140.574081,275.893280 140.091232,275.733429 139.307434,275.291138 
	C139.006470,275.008698 139.217300,275.199371 139.217300,275.199341 
	C139.604996,275.217499 139.992691,275.235626 140.668243,275.190704 
z"/>
<path fill="#861C22" opacity="1.000000" stroke="none" 
	d="
M139.101730,275.113953 
	C139.045563,275.035675 138.894135,274.852081 138.742706,274.668518 
	C138.842880,274.735291 138.943054,274.802032 139.130264,275.034088 
	C139.217300,275.199371 139.006470,275.008698 139.101730,275.113953 
z"/>
<path fill="#C02528" opacity="1.000000" stroke="none" 
	d="
M540.379089,339.769379 
	C540.325806,328.548035 540.705811,317.440063 540.980042,306.329437 
	C541.099182,301.503143 541.000793,296.671509 541.002319,291.365845 
	C549.735046,289.820618 558.530701,289.116974 567.183350,287.598602 
	C580.632935,285.238434 589.730591,277.633453 593.254700,264.063080 
	C593.459229,263.275421 593.740723,262.507721 594.240417,260.927521 
	C595.778503,263.536682 597.078308,265.512329 598.152954,267.603699 
	C603.274109,277.569763 613.265320,278.553802 622.424744,279.683868 
	C630.796570,280.716797 639.435730,279.583405 648.392761,279.399353 
	C648.890076,291.741882 648.871704,304.090973 649.055176,316.437042 
	C649.122498,320.972534 649.667358,325.500977 649.995422,330.435791 
	C642.007202,334.853394 633.992188,338.817993 626.047546,342.918854 
	C624.167725,343.889221 622.524170,345.317291 620.545166,346.692291 
	C617.070312,338.735138 610.714111,336.104401 603.045898,336.213623 
	C592.912354,336.357971 582.774536,336.680695 572.656006,337.242371 
	C564.690796,337.684479 559.204102,342.204376 555.244507,349.561279 
	C551.541565,344.264771 547.470459,339.957886 540.379089,339.769379 
z"/>
<path fill="#9F2024" opacity="1.000000" stroke="none" 
	d="
M421.587402,290.422211 
	C421.998962,304.255432 422.036987,318.019989 421.960327,331.783905 
	C421.948578,333.895386 421.408203,336.003906 421.054810,338.524475 
	C416.843231,339.191162 412.676910,339.783112 408.537689,339.631836 
	C400.435181,339.335785 393.710205,341.509399 389.152405,349.682220 
	C383.804657,339.003540 374.682861,336.654602 364.403931,336.596069 
	C355.749512,336.546783 347.080048,336.051483 338.446503,336.426483 
	C331.963593,336.708069 326.701874,339.841370 323.775696,346.459808 
	C319.671234,343.818237 315.806152,341.330719 312.084076,338.304321 
	C312.484650,336.337646 312.963226,334.910339 312.966156,333.482056 
	C313.001221,316.271484 312.965973,299.060760 312.949097,281.850098 
	C320.366211,280.211487 327.980286,279.147278 335.119965,276.699493 
	C338.863434,275.416077 342.028076,271.958679 344.972260,269.003113 
	C346.888275,267.079681 347.936829,264.292175 349.705597,261.337860 
	C350.274353,262.604401 350.730804,263.347809 350.952606,264.155640 
	C354.515869,277.134308 362.941193,285.525909 376.135559,287.206818 
	C391.040863,289.105682 406.153717,289.375214 421.587402,290.422211 
z"/>
<path fill="#921F23" opacity="1.000000" stroke="none" 
	d="
M312.491608,281.764740 
	C312.965973,299.060760 313.001221,316.271484 312.966156,333.482056 
	C312.963226,334.910339 312.484650,336.337646 311.858093,338.034698 
	C295.239655,329.694214 278.049377,326.193604 259.699554,328.446350 
	C258.280823,328.620483 256.489502,327.240692 255.138336,326.227203 
	C249.299805,321.847687 243.730957,317.089264 237.734573,312.945374 
	C232.385849,309.249054 226.516846,306.426971 219.362503,306.332947 
	C218.687958,293.653473 218.372299,281.133698 218.095856,268.121216 
	C223.714233,270.955872 229.484436,275.396606 236.157120,272.591400 
	C242.300201,270.008820 248.000900,266.044128 253.322693,261.943604 
	C257.468903,258.748901 260.734009,254.410614 264.767181,250.186188 
	C266.168121,254.751556 267.231323,258.854706 268.682953,262.815552 
	C271.799225,271.318359 278.022339,275.612549 286.782501,278.219391 
	C295.180267,280.718414 303.367462,282.298004 312.491608,281.764740 
z"/>
<path fill="#E42B2C" opacity="1.000000" stroke="none" 
	d="
M474.066742,262.721069 
	C473.784637,262.408081 473.620087,261.883850 473.630432,261.263947 
	C473.931671,261.615479 474.057983,262.062622 474.066742,262.721069 
z"/>
</svg>